# Blender 4.5.3 LTS
# www.blender.org
mtllib hlbs_battery.mtl
o battery_ref.001
v 0.625000 0.750015 0.875000
v 0.750000 0.000000 0.875000
v 0.750000 0.750000 0.875000
v 0.625000 0.000000 0.875000
v 0.000000 0.125000 0.875000
v 0.625000 0.125000 0.875000
v 0.000000 0.000000 0.875000
v 0.375000 0.750000 0.875000
v 0.375000 0.125000 0.875000
v 0.000000 0.750000 0.875000
v 0.187500 0.125000 0.875000
v 0.187500 0.750000 0.875000
v 0.750000 0.875000 0.875000
v 0.812500 0.000000 0.875000
v 0.812500 0.875000 0.875000
v 0.937500 0.750000 0.875000
v 1.000000 0.000000 0.875000
v 1.000000 0.750000 0.875000
v 0.937500 0.000000 0.875000
v 0.812500 0.750000 0.875000
v 1.000000 0.750000 0.125000
v 0.000000 0.625000 0.125000
v 0.000000 0.750000 0.125000
v 1.000000 0.625000 0.125000
v 0.187500 0.625000 0.125000
v 0.000000 0.125000 0.125000
v 0.187500 0.125000 0.125000
v 0.624995 0.125000 0.125000
v 0.000000 0.000000 0.125000
v 0.625000 0.000000 0.125000
v 0.750000 0.625000 0.125000
v 0.624997 0.624993 0.125000
v 0.750000 0.000000 0.125000
v 0.812500 0.625000 0.125000
v 0.812500 0.000000 0.125000
v 0.937500 0.625000 0.125000
v 0.937500 0.000000 0.125000
v 1.000000 0.000000 0.125000
v 0.000000 0.750000 0.250000
v 1.000000 0.750000 0.250000
v 0.187500 0.750000 0.250000
v 0.937500 0.750000 0.250000
v 0.812500 0.750000 0.250000
v 0.375000 0.750000 0.250000
v 0.625000 0.750000 0.249976
v 0.187500 0.187500 0.062500
v 0.125000 0.125000 0.125000
v 0.562496 0.187500 0.062500
v 0.125000 0.624996 0.125000
v 0.562495 0.562497 0.062500
v 0.187500 0.562495 0.062500
v 0.875000 1.000000 0.125000
v 0.875000 0.359375 -0.000000
v 0.875000 1.000000 -0.000000
v 0.875000 0.109375 0.125000
v 0.750000 1.000000 -0.000000
v 0.750000 0.109375 0.125000
v 0.750000 1.000000 0.125000
v 0.750000 0.359375 -0.000000
v 0.812500 0.875000 0.375000
v 0.750000 0.875000 0.375002
v 0.625000 0.875000 0.375010
v 0.750000 0.750000 0.250000
v 0.750000 0.187491 1.000000
v 0.812500 0.062480 0.875000
v 0.812500 0.187460 1.000000
v 0.750000 0.062500 0.875000
v 0.625000 0.187500 1.000000
v 0.625000 0.062500 0.875000
v 0.187500 0.187468 1.000000
v 0.375000 0.062480 0.875000
v 0.375000 0.187460 1.000000
v 0.187500 0.062480 0.875000
v 0.375000 0.875000 0.375000
v 0.187500 0.875000 0.375000
v 0.375000 0.625000 0.125000
v 0.812500 0.875000 1.000000
v 0.187500 0.875000 1.000000
v 0.187500 0.875000 0.875000
v 0.375000 0.875000 1.000000
v 0.375000 0.875000 0.875000
v 0.375000 0.125000 0.125000
v 0.750000 0.875008 1.000000
v 0.625000 0.875023 1.000000
vn -0.0000 -0.0000 1.0000
vn -0.0000 -0.0000 -1.0000
vn -0.0000 0.3827 -0.9239
vn 0.1602 -0.3203 -0.9337
vn -0.0000 0.3051 -0.9523
vn 0.4042 0.2021 -0.8921
vn -0.0000 0.1874 -0.9823
vn -0.0000 0.1873 -0.9823
vn -1.0000 -0.0000 -0.0000
vn 1.0000 -0.0000 -0.0000
vn -0.0000 1.0000 -0.0000
vn -0.0000 0.8629 -0.5054
vn -0.0001 1.0000 -0.0000
vn -0.0000 -1.0000 -0.0000
vn -0.2021 -0.4042 -0.8921
vn 0.1602 -0.3204 -0.9336
vn -0.0000 -0.7071 -0.7071
vn 0.3204 -0.1602 -0.9336
vn -0.0000 0.7071 -0.7071
vn 0.2021 0.4041 -0.8921
vn -0.3204 0.1602 -0.9336
vn -0.7071 -0.0000 -0.7071
vn -0.0000 -0.1527 -0.9883
vn -0.0000 -0.3054 -0.9522
vn -0.0000 -0.4472 -0.8944
vn -0.0000 0.9239 -0.3827
vn 0.0001 0.8628 -0.5055
vn -0.0000 0.9675 -0.2528
vn 0.0001 0.7071 -0.7071
vn 0.0002 -0.3827 0.9239
vn 0.0001 -0.7071 0.7071
vn -0.0002 -0.2527 0.9675
vn -0.0001 -0.7071 0.7071
vn -0.0002 -0.7071 0.7071
vn -0.0000 -0.5054 0.8629
vn -0.0000 -0.7071 0.7071
vn -0.0000 -0.7072 0.7071
vn -0.0000 -0.2528 0.9675
vn -0.0000 -0.5055 0.8628
vn -0.0000 0.8628 -0.5055
vn 0.0001 1.0000 -0.0000
vn 0.0001 1.0000 -0.0001
vt 0.489943 0.764453
vt 0.451494 0.995156
vt 0.451494 0.764458
vt 0.489943 0.995156
vt 0.566995 0.764453
vt 0.605445 0.956702
vt 0.566995 0.956702
vt 0.605445 0.764453
vt 0.768779 0.562521
vt 0.691880 0.754769
vt 0.691880 0.562516
vt 0.768779 0.754769
vt 0.370268 0.745235
vt 0.312594 0.937484
vt 0.312594 0.745235
vt 0.370268 0.937484
vt 0.778468 0.283680
vt 0.759243 0.552828
vt 0.759243 0.283680
vt 0.778468 0.552828
vt 0.745228 0.004844
vt 0.726004 0.235542
vt 0.726004 0.004844
vt 0.745228 0.235542
vt 0.783678 0.004844
vt 0.783678 0.235542
vt 0.793367 0.322130
vt 0.831777 0.629727
vt 0.793367 0.629727
vt 0.831777 0.322130
vt 0.557306 0.764453
vt 0.499632 0.918095
vt 0.499632 0.764453
vt 0.557306 0.918095
vt 0.615133 0.764455
vt 0.653544 0.956702
vt 0.615133 0.956702
vt 0.653544 0.764453
vt 0.043295 0.562517
vt 0.004845 0.754569
vt 0.004844 0.562519
vt 0.043295 0.754569
vt 0.062520 0.562517
vt 0.062520 0.754569
vt 0.100969 0.562517
vt 0.100969 0.754569
vt 0.120194 0.562517
vt 0.120194 0.754569
vt 0.643742 0.283680
vt 0.451494 0.475929
vt 0.451494 0.283680
vt 0.682192 0.475929
vt 0.682192 0.514378
vt 0.451494 0.514378
vt 0.682192 0.322130
vt 0.682192 0.283680
vt 0.004844 0.514378
vt 0.043294 0.552828
vt 0.004844 0.552828
vt 0.235542 0.552828
vt 0.235542 0.322130
vt 0.004844 0.322130
vt 0.004844 0.956506
vt 0.062519 0.764257
vt 0.062519 0.956505
vt 0.004844 0.764257
vt 0.793367 0.004844
vt 0.831816 0.312441
vt 0.793367 0.312441
vt 0.831816 0.004844
vt 0.283680 0.937484
vt 0.302905 0.745235
vt 0.302905 0.937484
vt 0.283680 0.745235
vt 0.245231 0.937484
vt 0.245231 0.745235
vt 0.129883 0.754765
vt 0.206782 0.562517
vt 0.206782 0.754772
vt 0.129883 0.562517
vt 0.004844 0.293217
vt 0.235542 0.312441
vt 0.004844 0.312441
vt 0.235542 0.293217
vt 0.265304 0.600975
vt 0.245231 0.735547
vt 0.245231 0.581750
vt 0.265304 0.716322
vt 0.711105 0.764458
vt 0.691880 0.899030
vt 0.691880 0.783683
vt 0.711105 0.918255
vt 0.004844 0.254767
vt 0.235542 0.254767
vt 0.004844 0.235542
vt 0.235542 0.235542
vt 0.004844 0.197093
vt 0.235542 0.197093
vt 0.004844 0.004844
vt 0.235542 0.004844
vt 0.380534 0.600975
vt 0.380534 0.716322
vt 0.768932 0.764458
vt 0.749707 0.899030
vt 0.749707 0.783682
vt 0.768932 0.918254
vt 0.740018 0.783683
vt 0.720794 0.918255
vt 0.720794 0.764458
vt 0.740018 0.899030
vt 0.928093 0.004844
vt 0.889643 0.201899
vt 0.889643 0.004844
vt 0.928093 0.278798
vt 0.899179 0.639416
vt 0.860730 0.913370
vt 0.860730 0.639416
vt 0.899179 0.836470
vt 0.428672 0.581750
vt 0.390223 0.778603
vt 0.390223 0.581750
vt 0.428672 0.778603
vt 0.879954 0.004844
vt 0.841505 0.278798
vt 0.841505 0.004844
vt 0.879954 0.278798
vt 0.129883 0.831824
vt 0.168332 0.870273
vt 0.129883 0.870273
vt 0.168332 0.831824
vt 0.390223 0.857160
vt 0.428672 0.857160
vt 0.976192 0.514378
vt 0.956967 0.591278
vt 0.956967 0.514378
vt 0.976192 0.591278
vt 0.110657 0.956505
vt 0.072207 0.994963
vt 0.072207 0.956502
vt 0.110657 0.994955
vt 0.129883 0.802910
vt 0.168332 0.822135
vt 0.129883 0.822135
vt 0.168332 0.802910
vt 0.129883 0.764461
vt 0.841466 0.543304
vt 0.868654 0.570492
vt 0.841466 0.597680
vt 0.178021 0.764461
vt 0.216471 0.822135
vt 0.178021 0.822135
vt 0.216471 0.764461
vt 0.749555 0.475929
vt 0.691880 0.552828
vt 0.691880 0.475929
vt 0.749555 0.552828
vt 0.947278 0.322130
vt 0.908829 0.360580
vt 0.908829 0.322130
vt 0.322130 0.004844
vt 0.245231 0.273992
vt 0.245231 0.081744
vt 0.475929 0.273992
vt 0.475929 0.004844
vt 0.908868 0.639416
vt 0.947317 0.639416
vt 0.947317 0.677865
vt 0.639416 0.004844
vt 0.485617 0.235542
vt 0.485617 0.004844
vt 0.716315 0.235542
vt 0.716315 0.081744
vt 0.976231 0.004844
vt 0.937781 0.043294
vt 0.937781 0.004844
vt 0.451494 0.677865
vt 0.682192 0.754765
vt 0.528393 0.754765
vt 0.682192 0.524067
vt 0.451494 0.524067
vt 0.749555 0.322130
vt 0.691880 0.322130
vt 0.749555 0.283680
vt 0.691880 0.283680
vt 0.956967 0.360580
vt 0.976192 0.322130
vt 0.976192 0.360580
vt 0.956967 0.322130
vt 0.110657 0.764257
vt 0.072207 0.764257
vt 0.245231 0.412996
vt 0.441805 0.286259
vt 0.299547 0.415583
vt 0.387483 0.283680
vt 0.908868 0.850899
vt 0.947317 0.889345
vt 0.937781 0.254773
vt 0.976231 0.216330
vt 0.387491 0.569476
vt 0.441805 0.572061
vt 0.908829 0.572059
vt 0.947278 0.533615
vt 0.812591 0.639421
vt 0.793367 0.850908
vt 0.793367 0.639423
vt 0.812591 0.850899
vt 0.851041 0.639416
vt 0.851041 0.850896
vt 0.899140 0.322130
vt 0.841466 0.533615
vt 0.841466 0.322130
vt 0.899140 0.533613
s 1
usemtl Material.001
f 1/1/1 2/2/1 3/3/1
f 1/1/1 4/4/1 2/2/1
f 5/5/1 4/6/1 6/7/1
f 5/5/1 7/8/1 4/6/1
f 8/9/1 6/10/1 1/11/1
f 8/9/1 9/12/1 6/10/1
f 10/13/1 11/14/1 12/15/1
f 10/13/1 5/16/1 11/14/1
f 13/17/1 14/18/1 15/19/1
f 13/17/1 2/20/1 14/18/1
f 16/21/1 17/22/1 18/23/1
f 16/21/1 19/24/1 17/22/1
f 20/25/1 19/24/1 16/21/1
f 20/25/1 14/26/1 19/24/1
f 21/27/2 22/28/2 23/29/2
f 21/27/2 24/30/2 22/28/2
f 25/31/3 26/32/2 22/33/2
f 25/31/3 27/34/2 26/32/2
f 28/35/4 29/36/2 26/37/2
f 28/35/4 30/38/2 29/36/2
f 31/39/5 30/40/2 32/41/6
f 31/39/5 33/42/2 30/40/2
f 34/43/7 33/42/2 31/39/5
f 34/43/7 35/44/2 33/42/2
f 36/45/2 35/44/2 34/43/8
f 36/45/2 37/46/2 35/44/2
f 24/47/2 37/46/2 36/45/2
f 24/47/2 38/48/2 37/46/2
f 39/49/9 5/50/9 10/51/9
f 26/52/9 29/53/9 7/54/9
f 26/52/9 7/54/9 5/50/9
f 39/49/9 26/52/9 5/50/9
f 39/49/9 22/55/9 26/52/9
f 39/49/9 23/56/9 22/55/9
f 40/57/10 24/58/10 21/59/10
f 40/57/10 38/60/10 24/58/10
f 40/57/10 17/61/10 38/60/10
f 40/57/10 18/62/10 17/61/10
f 39/63/11 12/64/11 41/65/11
f 39/63/11 10/66/11 12/64/11
f 23/67/11 40/68/11 21/69/11
f 23/67/11 39/70/11 40/68/11
f 42/71/11 18/72/11 40/73/11
f 42/71/11 16/74/11 18/72/11
f 43/75/11 16/74/11 42/71/11
f 43/75/11 20/76/11 16/74/11
f 44/77/11 1/78/11 45/79/12
f 44/77/11 8/80/13 1/78/11
f 19/81/14 38/82/14 17/83/14
f 19/81/14 37/84/14 38/82/14
f 46/85/15 28/86/16 47/87/17
f 46/85/15 48/88/18 28/86/16
f 49/89/19 50/90/20 51/91/21
f 49/89/19 32/92/6 50/90/20
f 14/93/14 37/84/14 19/81/14
f 14/93/14 35/94/14 37/84/14
f 2/95/14 35/94/14 14/93/14
f 2/95/14 33/96/14 35/94/14
f 4/97/14 33/96/14 2/95/14
f 4/97/14 30/98/14 33/96/14
f 7/99/14 30/98/14 4/97/14
f 7/99/14 29/100/14 30/98/14
f 51/101/21 48/88/18 46/85/15
f 51/101/21 50/102/20 48/88/18
f 32/103/6 48/104/18 50/105/20
f 32/103/6 28/106/16 48/104/18
f 51/107/21 47/108/22 49/109/22
f 51/107/21 46/110/15 47/108/22
f 52/111/10 53/112/10 54/113/10
f 52/111/10 55/114/10 53/112/10
f 56/115/9 57/116/9 58/117/9
f 56/115/9 59/118/9 57/116/9
f 54/119/2 59/120/23 56/121/2
f 54/119/2 53/122/24 59/120/23
f 58/123/1 55/124/1 52/125/1
f 58/123/1 57/126/1 55/124/1
f 56/127/11 52/128/11 54/129/11
f 56/127/11 58/130/11 52/128/11
f 53/122/24 57/131/25 59/120/23
f 53/122/24 55/132/25 57/131/25
f 60/133/12 31/134/5 61/135/26
f 60/133/12 34/136/7 31/134/5
f 61/137/26 45/138/27 62/139/28
f 61/137/26 63/140/29 45/138/27
f 64/141/30 65/142/31 66/143/32
f 64/141/30 67/144/33 65/142/34
f 68/145/35 67/144/33 64/141/30
f 68/146/35 69/147/36 67/148/33
f 70/149/35 71/150/37 72/151/38
f 70/149/39 73/152/36 71/150/36
f 74/153/12 25/154/3 75/155/28
f 74/153/40 76/156/19 25/154/3
f 77/157/10 20/158/10 15/159/10
f 60/160/10 35/161/10 34/162/10
f 60/160/10 14/163/10 35/161/10
f 60/160/10 15/164/10 14/163/10
f 78/165/9 79/166/9 12/167/9
f 75/168/9 11/169/9 79/170/9
f 75/168/9 27/171/9 11/169/9
f 75/168/9 25/172/9 27/171/9
f 80/173/10 8/174/10 81/175/10
f 74/176/10 82/177/10 76/178/10
f 74/176/10 9/179/10 82/177/10
f 74/176/10 81/180/10 9/179/10
f 75/155/28 81/181/11 74/153/12
f 75/155/28 79/182/11 81/181/11
f 79/182/11 80/183/11 81/181/11
f 79/182/11 78/184/11 80/183/11
f 13/185/11 77/186/41 15/187/11
f 13/185/11 83/188/42 77/186/41
f 62/139/28 83/189/41 61/137/26
f 62/139/28 84/190/41 83/189/41
f 84/191/9 45/192/9 1/193/9
f 84/191/9 62/194/9 45/192/9
f 12/167/9 70/195/9 78/165/9
f 12/167/9 73/196/9 70/195/9
f 80/173/10 71/197/10 8/174/10
f 80/173/10 72/198/10 71/197/10
f 1/193/9 68/199/9 84/191/9
f 1/193/9 69/200/9 68/199/9
f 77/157/10 65/201/10 20/158/10
f 77/157/10 66/202/10 65/201/10
f 61/135/26 15/187/11 60/133/12
f 61/135/26 13/185/11 15/187/11
f 83/203/1 66/204/32 77/205/1
f 83/203/1 64/206/30 66/204/32
f 84/207/1 64/206/30 83/203/1
f 84/207/1 68/208/35 64/206/30
f 78/209/1 72/210/38 80/211/1
f 78/209/1 70/212/35 72/210/38
