# Blender 4.5.3 LTS
# www.blender.org
mtllib oot_pot.mtl
o zelda_pot
v 0.499176 -0.093715 0.501195
v 0.012550 0.092619 0.427339
v 0.257164 0.092619 0.072608
v 0.793371 0.092619 0.074563
v 0.985798 0.092619 0.575056
v 0.741185 0.092619 0.929787
v 0.208283 0.092619 0.923039
v 0.276011 0.535157 0.106822
v 0.051232 0.535157 0.432790
v 0.499176 0.901996 0.501195
v 0.947119 0.535157 0.569601
v 0.770231 0.535157 0.108119
v 0.722340 0.535157 0.895569
v 0.228118 0.535157 0.894276
v 0.599661 0.901996 0.273417
v 0.266605 0.901996 0.397405
v 0.726951 0.901996 0.601684
v 0.395386 0.901996 0.733766
v 0.368609 0.901996 0.793110
v 0.791086 0.901996 0.631760
v 0.203957 0.901996 0.375428
v 0.629740 0.901996 0.209285
vn -0.3195 -0.9216 -0.2203
vn 0.3728 -0.9168 -0.1433
vn -0.0051 -0.9160 0.4011
vn -0.5507 0.7433 -0.3798
vn 0.9310 0.0770 -0.3569
vn 0.9309 0.0764 -0.3573
vn 0.9308 0.0763 -0.3574
vn 0.9307 0.0758 -0.3578
vn -0.0126 0.0766 0.9970
vn -0.0026 0.0650 0.9979
vn -0.8207 0.0787 -0.5659
vn 0.6365 0.7317 -0.2440
vn -0.0018 0.7317 0.6816
vn -0.3434 -0.1764 -0.9225
vn 0.9181 -0.1741 -0.3560
vn -0.9190 -0.1780 0.3518
vn 0.0015 -0.9168 -0.3994
vn 0.3643 -0.1756 0.9146
vn 0.0036 0.0769 -0.9970
vn 0.0030 0.0758 -0.9971
vn 0.0031 0.0763 -0.9971
vn 0.0026 0.0757 -0.9971
vn -0.3731 -0.9160 0.1473
vn 0.0018 0.7317 -0.6816
vn -0.9281 0.0654 0.3665
vn -0.9310 0.0770 0.3568
vn 0.3195 -0.9216 0.2203
vn -0.6365 0.7317 0.2440
vn 0.8207 0.0787 0.5659
vn 0.5507 0.7433 0.3798
vn -0.0000 1.0000 -0.0000
vt 0.506494 0.999541
vt 0.749360 0.926771
vt 0.263660 0.926771
vt 0.259760 0.644324
vt 0.754877 0.642907
vt 0.502610 0.216140
vt 0.326494 0.336501
vt 0.493160 0.945293
vt 0.659827 0.336501
vt 0.000000 -0.002000
vt 0.000000 1.000000
vt 1.000000 -0.002000
vt 1.000000 1.000000
s 1
usemtl pot_base
f 1/1/1 2/2/1 3/3/1
f 1/1/2 4/2/2 5/3/2
f 1/1/3 6/2/3 7/3/3
f 8/4/4 9/5/4 10/6/4
f 11/4/5 5/3/6 12/5/7
f 12/5/7 5/3/6 4/2/8
f 6/2/9 13/5/9 7/3/9
f 7/3/10 13/5/10 14/4/10
f 2/2/11 9/5/11 3/3/11
f 3/3/11 9/5/11 8/4/11
f 11/4/12 12/5/12 10/6/12
f 14/4/13 13/5/13 10/6/13
f 15/7/14 1/8/14 16/9/14
f 17/7/15 1/8/15 15/9/15
f 16/7/16 1/8/16 18/9/16
f 1/1/17 3/2/17 4/3/17
f 18/7/18 1/8/18 17/9/18
f 3/2/19 8/5/20 4/3/21
f 4/3/21 8/5/20 12/4/22
f 1/1/23 7/2/23 2/3/23
f 12/4/24 8/5/24 10/6/24
f 7/2/25 14/5/25 2/3/25
f 2/3/26 14/5/26 9/4/26
f 1/1/27 5/2/27 6/3/27
f 9/4/28 14/5/28 10/6/28
f 13/4/29 6/3/29 11/5/29
f 11/5/29 6/3/29 5/2/29
f 13/4/30 11/5/30 10/6/30
usemtl pot_top
f 19/10/31 20/11/31 21/12/31
f 21/12/31 20/11/31 22/13/31
