# Blender 4.5.3 LTS
# www.blender.org
mtllib ammo_uranium.mtl
o world_gaussammo
v 0.045312 0.299809 0.828362
v 0.093268 0.001869 0.796222
v 0.045312 0.299809 0.828362
v 0.045312 0.299809 0.828362
v 0.093268 0.001869 0.796222
v 0.093268 0.001869 0.226871
v 0.045312 0.299809 0.194730
v 0.267746 0.517651 0.791630
v 0.267746 0.517651 0.878359
v 0.751388 0.517651 0.791630
v 0.751388 0.517651 0.878359
v 0.267746 0.001869 0.791630
v 0.751388 0.001869 0.791630
v 0.267746 0.001869 0.878359
v 0.751388 0.001869 0.878359
v 0.938111 0.001869 0.226871
v 0.986066 0.299809 0.194730
v 0.938111 0.001869 0.796222
v 0.986066 0.299809 0.828362
v 0.034088 0.293176 0.187078
v 0.021334 0.480409 0.178915
v 0.997290 0.293176 0.187078
v 1.010045 0.480409 0.178915
v 0.034088 0.293176 0.835505
v 0.021334 0.480409 0.844177
v 0.997290 0.293176 0.835505
v 1.010045 0.480409 0.844177
v 0.986066 0.299809 0.194730
v 0.986066 0.299809 0.194730
v 0.938111 0.001869 0.226871
v 0.045312 0.299809 0.828362
v 0.034088 0.293176 0.835505
v 0.045312 0.299809 0.828362
v 0.224382 0.514590 0.300336
v 0.242748 0.496224 0.155957
v 0.143265 0.514590 0.300336
v 0.124899 0.496224 0.155957
v 0.143265 0.428371 0.300336
v 0.224382 0.428371 0.300336
v 0.242748 0.386027 0.164120
v 0.124899 0.386027 0.164120
v 0.795773 0.514590 0.300336
v 0.876890 0.514590 0.300336
v 0.777407 0.496224 0.155957
v 0.895256 0.496224 0.155957
v 0.876890 0.428371 0.300336
v 0.795773 0.428371 0.300336
v 0.777407 0.386027 0.164120
v 0.895256 0.386027 0.164120
v 1.011065 0.003399 0.313600
v 1.011065 0.003399 0.701330
v 0.009600 0.003399 0.313600
v 0.009600 0.003399 0.701330
v 0.280797 0.240593 0.596279
v 0.739591 0.240593 0.596279
v 0.280797 0.240593 0.418651
v 0.739591 0.240593 0.418651
vn -0.0000 1.0000 -0.0000
vn -0.6408 -0.6363 0.4294
vn -0.1580 0.9817 0.1059
vn -0.0000 -0.0000 -1.0000
vn 1.0000 -0.0000 -0.0000
vn -0.9534 -0.3017 -0.0000
vn -1.0000 -0.0000 -0.0000
vn -0.0000 -0.0000 1.0000
vn -0.0000 -0.3203 -0.9473
vn 0.7972 -0.6037 -0.0000
vn -0.0000 -0.1409 0.9900
vn -0.0000 -0.1413 0.9900
vn -0.0000 -0.1405 0.9901
vn -0.0000 -0.1398 -0.9902
vn -0.0000 -0.1405 -0.9901
vn -0.0000 -0.3203 0.9473
vn -0.7972 -0.6037 -0.0000
vn -0.8212 -0.2292 0.5226
vn -0.7550 0.4462 0.4805
vn -0.0000 0.9992 -0.0406
vn 0.9819 0.0431 0.1844
vn 0.9804 -0.0000 0.1969
vn -0.9825 -0.0000 0.1862
vn -0.9803 0.0450 0.1924
vn -0.9803 0.0449 0.1925
vn 0.9804 0.0001 0.1970
vn 0.9804 -0.0000 0.1970
vn 0.0001 -0.2260 -0.9741
vn -0.0000 -0.2260 -0.9741
vn -0.9803 0.0450 0.1925
vn -0.9825 -0.0000 0.1863
vn 0.9534 -0.3017 -0.0000
vn 0.1815 0.9834 0.0001
vn 0.1836 0.9815 0.0536
vn 0.4583 0.7416 0.4900
vn 0.1815 0.9834 -0.0000
vn -0.0000 0.8131 0.5822
vn -0.1732 0.7852 0.5945
vn -0.3509 0.6843 0.6392
vn -0.0000 0.8131 -0.5822
vn 0.1731 0.7852 -0.5945
vn 0.3508 0.6844 -0.6392
vn -0.1836 0.9815 -0.0537
vn -0.4584 0.7412 -0.4904
vn -0.1815 0.9834 -0.0000
vn -0.1815 0.9834 -0.0001
vt 0.000000 0.935484
vt 0.047619 0.000000
vt 0.000000 1.000000
vt 1.000000 1.000000
vt 1.000000 0.000000
vt 0.000000 0.000000
vt 0.000000 0.516129
vt 1.000000 0.516129
vt 0.984127 0.000000
vt 0.031746 0.935484
vt 0.968254 0.935484
vt 0.920635 0.000000
vt 0.079365 0.000000
vt 1.000000 0.935484
vt 0.936508 0.000000
vt 0.015873 0.032258
vt 0.800000 0.000000
vt 0.133333 0.000000
vt 0.933333 0.000000
vt 1.000000 0.800000
vt 0.000000 0.266667
vt 0.000000 0.800000
vt 0.800000 0.266667
vt 0.800000 1.000000
vt 0.133333 1.000000
vt 0.133333 0.266667
vt 0.809524 0.000000
vt 0.637499 0.541877
vt 0.353899 0.541877
vt 0.190476 0.000000
vt 0.724761 0.541877
vt 0.266638 0.541877
vt 0.266638 0.541877
vt 0.724761 0.541877
vt 0.637499 0.541877
s 1
usemtl boxside
f 3/1/1 4/1/2 5/2/3
f 8/3/4 10/4/4 13/5/4 12/6/4
f 10/4/5 11/3/5 15/6/5 13/5/5
f 25/7/6 21/8/6 20/9/6 24/6/6
f 9/3/7 8/4/7 12/5/7 14/6/7
f 11/4/8 9/3/8 14/6/8 15/5/8
f 7/10/9 17/11/9 16/12/9 6/13/9
f 17/14/10 19/1/10 18/2/10 16/15/10
f 27/8/11 25/7/12 24/6/11 26/9/13
f 21/7/14 23/8/15 22/9/15 20/6/14
f 19/11/16 4/10/16 5/13/16 18/12/16
f 28/14/1 29/14/1 30/15/1
f 4/1/17 7/14/17 6/15/17 5/2/17
f 31/16/18 32/6/19 33/16/1
f 9/6/1 11/5/1 10/4/1 8/3/1
f 23/8/32 27/7/32 26/6/32 22/9/32
f 50/27/33 57/28/34 55/29/35 51/30/36
f 51/5/37 55/31/38 54/32/39 53/6/37
f 52/6/40 56/33/41 57/34/42 50/5/40
f 54/29/43 56/35/44 52/27/45 53/30/46
usemtl boxtop
f 25/4/1 27/3/1 23/6/1 21/5/1
usemtl hinge
f 43/17/20 45/4/20 44/3/20 42/18/20
f 40/19/21 35/20/21 34/3/22 39/21/22
f 38/21/23 36/3/23 37/20/24 41/19/25
f 45/20/26 43/3/27 46/21/21 49/19/21
f 41/6/28 37/22/29 35/20/29 40/5/29
f 42/3/30 44/20/30 48/19/31 47/21/23
f 39/23/8 34/24/8 36/25/8 38/26/8
f 35/4/20 37/3/20 36/18/20 34/17/20
f 46/23/8 43/24/8 42/25/8 47/26/8
f 44/22/29 45/20/29 49/5/29 48/6/28
