# Blender 4.5.3 LTS
# www.blender.org
mtllib deku_nut.mtl
o reference_ref.001
v 0.244292 0.880542 0.498625
v 0.326779 0.894290 0.347400
v 0.154932 0.688074 0.306157
v 0.368022 0.736191 0.113689
v 0.471130 0.928660 0.271788
v 0.614794 0.770561 0.058698
v 0.614794 0.928660 0.299283
v 0.821010 0.770561 0.182427
v 0.711028 0.928660 0.409265
v 0.903496 0.736191 0.423013
v 0.717902 0.894290 0.573550
v 0.841631 0.688074 0.704154
v 0.628541 0.880542 0.724775
v 0.614794 0.639957 0.910370
v 0.478004 0.846173 0.814136
v 0.368022 0.605588 0.965361
v 0.333652 0.846173 0.786640
v 0.161806 0.605588 0.848505
v 0.237418 0.846173 0.676658
v 0.086193 0.639957 0.601046
v 0.175553 0.275642 0.306157
v 0.388643 0.255020 0.106815
v 0.347400 0.090048 0.319905
v 0.491751 0.069426 0.244292
v 0.614794 0.241273 0.058698
v 0.635415 0.069426 0.271788
v 0.821010 0.241273 0.182427
v 0.724775 0.069426 0.381769
v 0.896622 0.255020 0.402391
v 0.731649 0.090048 0.546055
v 0.834757 0.275642 0.676658
v 0.649163 0.103795 0.690406
v 0.621668 0.296264 0.876001
v 0.504812 0.103795 0.766019
v 0.395517 0.310011 0.924118
v 0.361148 0.124417 0.745397
v 0.189301 0.310011 0.800388
v 0.264914 0.103795 0.628541
v 0.113689 0.296264 0.580424
v 0.258040 0.103795 0.471130
v 0.058698 0.481858 0.409265
v 0.072445 0.426867 0.697280
v 0.258040 0.413119 0.924118
v 0.546055 0.426867 0.972235
v 0.800388 0.481858 0.841631
v 0.965361 0.536849 0.559803
v 0.958487 0.571218 0.258040
v 0.759145 0.584966 0.044950
v 0.484877 0.571218 -0.016915
v 0.216797 0.536849 0.127436
v 0.237418 0.447489 0.134310
v 0.079319 0.461237 0.402391
v 0.093067 0.495606 0.690406
v 0.264914 0.495606 0.910370
v 0.539181 0.495606 0.944739
v 0.793514 0.461237 0.814136
v 0.944739 0.447489 0.546055
v 0.930992 0.426867 0.264914
v 0.752271 0.413119 0.058698
v 0.491751 0.426867 0.003707
v 0.154932 0.688074 0.306157
v 0.368022 0.736191 0.113689
v 0.216797 0.536849 0.127436
v 0.484877 0.571218 -0.016915
v 0.614794 0.770561 0.058698
v 0.759145 0.584966 0.044950
v 0.821010 0.770561 0.182427
v 0.903496 0.736191 0.423013
v 0.958487 0.571218 0.258040
v 0.965361 0.536849 0.559803
v 0.841631 0.688074 0.704154
v 0.800388 0.481858 0.841631
v 0.614794 0.639957 0.910370
v 0.368022 0.605588 0.965361
v 0.546055 0.426867 0.972235
v 0.258040 0.413119 0.924118
v 0.161806 0.605588 0.848505
v 0.072445 0.426867 0.697280
v 0.237418 0.447489 0.134310
v 0.491751 0.426867 0.003707
v 0.388643 0.255020 0.106815
v 0.614794 0.241273 0.058698
v 0.752271 0.413119 0.058698
v 0.821010 0.241273 0.182427
v 0.930992 0.426867 0.264914
v 0.944739 0.447489 0.546055
v 0.896622 0.255020 0.402391
v 0.834757 0.275642 0.676658
v 0.793514 0.461237 0.814136
v 0.621668 0.296264 0.876001
v 0.539181 0.495606 0.944739
v 0.264914 0.495606 0.910370
v 0.395517 0.310011 0.924118
v 0.189301 0.310011 0.800388
v 0.093067 0.495606 0.690406
v 0.113689 0.296264 0.580424
v 0.244292 0.880542 0.498625
v 0.237418 0.846173 0.676658
v 0.086193 0.639957 0.601046
v 0.498625 0.000687 0.504812
v 0.258040 0.103795 0.471130
v 0.347400 0.090048 0.319905
v 0.175553 0.275642 0.306157
v 0.471130 0.976777 0.552929
v 0.471130 0.928660 0.271788
v 0.614794 0.928660 0.299283
v 0.471130 0.976777 0.552929
v 0.498625 0.000687 0.504812
v 0.504812 0.103795 0.766019
v 0.649163 0.103795 0.690406
v 0.862253 0.667453 0.361148
v 0.800388 0.688074 0.662911
v 0.834757 0.296264 0.504812
v 0.717902 0.310011 0.711028
v 0.587298 0.639957 0.834757
v 0.471130 0.310011 0.786640
v 0.333652 0.653705 0.786640
v 0.264914 0.310011 0.669785
v 0.168680 0.639957 0.594172
v 0.209923 0.310011 0.423013
v 0.209923 0.688074 0.319905
v 0.326779 0.296264 0.209923
v 0.443634 0.667453 0.120562
v 0.566676 0.310011 0.113689
v 0.711028 0.667453 0.134310
v 0.807262 0.310011 0.251166
vn -0.6625 0.7461 -0.0665
vn -0.5040 0.7914 -0.3459
vn -0.7956 0.4751 -0.3759
vn -0.4627 0.5567 -0.6899
vn -0.1848 0.8760 -0.4455
vn 0.1055 0.6209 -0.7768
vn 0.2067 0.9118 -0.3547
vn 0.6192 0.6218 -0.4796
vn 0.4761 0.8767 -0.0688
vn 0.8252 0.5624 0.0523
vn 0.5497 0.7940 0.2596
vn 0.7202 0.4785 0.5022
vn 0.3832 0.7464 0.5442
vn 0.3723 0.3898 0.8423
vn 0.0557 0.7156 0.6963
vn -0.1649 0.3140 0.9350
vn -0.3418 0.7240 0.5991
vn -0.7278 0.3082 0.6126
vn -0.6319 0.7181 0.2914
vn -0.9203 0.3817 0.0862
vn -0.7779 -0.4767 -0.4094
vn -0.4331 -0.5129 -0.7412
vn -0.4805 -0.7840 -0.3930
vn -0.1474 -0.8420 -0.5189
vn 0.1334 -0.5485 -0.8254
vn 0.2578 -0.8655 -0.4296
vn 0.6577 -0.5432 -0.5218
vn 0.5270 -0.8396 -0.1320
vn 0.8616 -0.5075 -0.0023
vn 0.5796 -0.7844 0.2208
vn 0.7476 -0.4718 0.4674
vn 0.4240 -0.7582 0.4953
vn 0.3968 -0.4272 0.8124
vn 0.0660 -0.7758 0.6276
vn -0.1613 -0.4205 0.8928
vn -0.3190 -0.7700 0.5525
vn -0.6921 -0.4221 0.5855
vn -0.5777 -0.7721 0.2649
vn -0.9003 -0.4296 0.0704
vn -0.6399 -0.7591 -0.1195
vn -0.7780 -0.4767 -0.4093
vn -0.6398 -0.7592 -0.1196
vn -0.4805 -0.7840 -0.3929
vn 0.7956 -0.4749 0.3760
vn 0.9203 -0.3815 -0.0861
vn 0.9584 -0.2150 0.1878
vn 0.9584 -0.2149 0.1877
vn 0.9203 -0.3815 -0.0862
vn 0.9363 -0.0533 -0.3472
vn 0.7279 -0.3080 -0.6126
vn 0.4976 0.0582 -0.8654
vn 0.7278 -0.3081 -0.6127
vn 0.1649 -0.3139 -0.9350
vn 0.4975 0.0582 -0.8655
vn -0.1590 -0.0762 -0.9843
vn -0.3723 -0.3896 -0.8424
vn -0.1592 -0.0762 -0.9843
vn -0.3724 -0.3896 -0.8423
vn -0.6355 -0.2303 -0.7369
vn -0.7203 -0.4784 -0.5023
vn -0.9065 -0.3206 -0.2748
vn -0.7203 -0.4785 -0.5022
vn -0.8253 -0.5622 -0.0522
vn -0.9065 -0.3207 -0.2746
vn -0.8800 -0.3675 0.3009
vn -0.6192 -0.6217 0.4796
vn -0.8800 -0.3674 0.3010
vn -0.6192 -0.6217 0.4797
vn -0.4779 -0.3087 0.8224
vn -0.1056 -0.6207 0.7769
vn 0.1864 -0.3577 0.9151
vn -0.1055 -0.6207 0.7769
vn 0.4627 -0.5566 0.6900
vn 0.1865 -0.3578 0.9150
vn 0.6898 -0.3237 0.6477
vn 0.6703 0.2875 0.6841
vn 0.9475 0.2424 0.2086
vn 0.7780 0.4765 0.4094
vn 0.7780 0.4766 0.4093
vn 0.9475 0.2424 0.2084
vn 0.9004 0.4294 -0.0704
vn 0.9246 0.1571 -0.3471
vn 0.6922 0.4220 -0.5855
vn 0.9245 0.1571 -0.3473
vn 0.4968 0.1216 -0.8593
vn 0.6921 0.4219 -0.5856
vn 0.1613 0.4204 -0.8929
vn -0.1730 0.1340 -0.9758
vn 0.1612 0.4204 -0.8929
vn -0.1731 0.1341 -0.9757
vn -0.3968 0.4270 -0.8125
vn -0.6580 0.2335 -0.7159
vn -0.7477 0.4717 -0.4675
vn -0.6581 0.2334 -0.7158
vn -0.9332 0.2707 -0.2365
vn -0.7477 0.4716 -0.4674
vn -0.8617 0.5074 0.0024
vn -0.9047 0.2701 0.3296
vn -0.9046 0.2701 0.3297
vn -0.6578 0.5431 0.5219
vn -0.4945 0.2425 0.8347
vn -0.1335 0.5484 0.8255
vn -0.4944 0.2424 0.8347
vn 0.1661 0.2790 0.9458
vn -0.1334 0.5484 0.8255
vn 0.4332 0.5127 0.7412
vn -0.7957 0.4749 -0.3760
vn -0.4627 0.5566 -0.6900
vn -0.6898 0.3237 -0.6477
vn -0.1865 0.3578 -0.9150
vn 0.1055 0.6207 -0.7769
vn -0.1863 0.3577 -0.9150
vn 0.1056 0.6207 -0.7769
vn 0.4779 0.3087 -0.8224
vn 0.6192 0.6217 -0.4797
vn 0.8800 0.3674 -0.3010
vn 0.6192 0.6217 -0.4796
vn 0.8254 0.5622 0.0522
vn 0.8800 0.3674 -0.3009
vn 0.9065 0.3208 0.2746
vn 0.7203 0.4785 0.5022
vn 0.9065 0.3206 0.2748
vn 0.7203 0.4784 0.5023
vn 0.6355 0.2302 0.7369
vn 0.3724 0.3896 0.8423
vn 0.1592 0.0762 0.9843
vn 0.3723 0.3896 0.8424
vn -0.1649 0.3139 0.9350
vn 0.1590 0.0762 0.9843
vn -0.4975 -0.0582 0.8655
vn -0.7278 0.3081 0.6127
vn -0.4976 -0.0582 0.8654
vn -0.7279 0.3080 0.6126
vn -0.9363 0.0533 0.3472
vn -0.9203 0.3815 0.0862
vn -0.9584 0.2149 -0.1877
vn -0.9203 0.3815 0.0861
vn -0.9584 0.2150 -0.1879
vn -0.6703 -0.2875 -0.6842
vn -0.1661 -0.2790 -0.9458
vn -0.4332 -0.5128 -0.7413
vn 0.1334 -0.5483 -0.8255
vn 0.4944 -0.2425 -0.8347
vn 0.1335 -0.5484 -0.8255
vn 0.4945 -0.2425 -0.8346
vn 0.6578 -0.5431 -0.5219
vn 0.9046 -0.2701 -0.3297
vn 0.8617 -0.5074 -0.0024
vn 0.9047 -0.2701 -0.3296
vn 0.9332 -0.2707 0.2365
vn 0.8617 -0.5074 -0.0023
vn 0.7477 -0.4716 0.4674
vn 0.6581 -0.2334 0.7158
vn 0.7477 -0.4716 0.4675
vn 0.6580 -0.2335 0.7159
vn 0.3968 -0.4270 0.8125
vn 0.1731 -0.1341 0.9757
vn -0.1612 -0.4204 0.8929
vn 0.1730 -0.1340 0.9758
vn -0.4968 -0.1216 0.8593
vn -0.1614 -0.4204 0.8929
vn -0.6921 -0.4219 0.5856
vn -0.9245 -0.1571 0.3473
vn -0.6922 -0.4220 0.5855
vn -0.9246 -0.1571 0.3471
vn -0.9004 -0.4294 0.0704
vn -0.9475 -0.2424 -0.2084
vn -0.7780 -0.4766 -0.4093
vn -0.9475 -0.2424 -0.2086
vn -0.6704 -0.2874 -0.6841
vn -0.7780 -0.4765 -0.4094
vn 0.6625 -0.7461 0.0666
vn 0.6319 -0.7182 -0.2914
vn 0.9203 -0.3817 -0.0862
vn 0.7278 -0.3082 -0.6127
vn 0.3418 -0.7240 -0.5991
vn 0.1649 -0.3140 -0.9350
vn -0.0558 -0.7156 -0.6963
vn -0.3723 -0.3898 -0.8423
vn -0.3831 -0.7464 -0.5442
vn -0.7202 -0.4785 -0.5023
vn -0.5497 -0.7940 -0.2595
vn -0.8253 -0.5623 -0.0523
vn -0.4760 -0.8767 0.0687
vn -0.6192 -0.6218 0.4796
vn -0.2066 -0.9119 0.3547
vn -0.1055 -0.6208 0.7768
vn 0.1847 -0.8760 0.4456
vn 0.4627 -0.5567 0.6899
vn 0.5040 -0.7914 0.3459
vn 0.7956 -0.4751 0.3759
vn 0.7780 0.4767 0.4093
vn 0.9003 0.4295 -0.0704
vn 0.6399 0.7591 0.1195
vn 0.5777 0.7721 -0.2649
vn 0.6921 0.4221 -0.5855
vn 0.3190 0.7700 -0.5525
vn 0.1613 0.4205 -0.8928
vn -0.0660 0.7757 -0.6276
vn -0.3968 0.4272 -0.8124
vn -0.4240 0.7582 -0.4953
vn -0.7477 0.4717 -0.4674
vn -0.5796 0.7844 -0.2208
vn -0.8616 0.5075 0.0024
vn -0.5270 0.8395 0.1320
vn -0.6577 0.5432 0.5218
vn -0.2578 0.8655 0.4296
vn -0.1334 0.5485 0.8254
vn 0.1474 0.8420 0.5189
vn 0.4332 0.5129 0.7412
vn 0.4805 0.7840 0.3930
vn 0.7779 0.4767 0.4094
vn 0.0377 0.9969 -0.0696
vn 0.4804 0.7841 0.3928
vn 0.6397 0.7592 0.1196
vn 0.6398 0.7592 0.1196
vn 0.4805 0.7840 0.3929
vn 0.7779 0.4767 0.4093
vn 0.2066 0.9119 -0.3546
vn -0.1847 0.8761 -0.4454
vn -0.0757 0.9885 0.1309
vn 0.4759 0.8768 -0.0687
vn -0.6624 0.7462 -0.0665
vn -0.6318 0.7183 0.2914
vn -0.5039 0.7915 -0.3458
vn 0.0557 0.7157 0.6961
vn -0.3418 0.7241 0.5990
vn 0.5495 0.7942 0.2595
vn 0.3830 0.7465 0.5441
vn 0.0659 -0.7759 0.6274
vn -0.0376 -0.9969 0.0696
vn 0.4239 -0.7583 0.4952
vn -0.4804 -0.7841 -0.3928
vn -0.6397 -0.7592 -0.1195
vn 0.5795 -0.7845 0.2208
vn 0.5269 -0.8396 -0.1319
vn 0.2577 -0.8656 -0.4294
vn -0.1473 -0.8421 -0.5188
vn -0.5775 -0.7722 0.2649
vn -0.4804 -0.7841 -0.3929
vn -0.3189 -0.7702 0.5524
vn -0.7780 -0.4766 -0.4095
vn 0.1848 -0.8761 0.4454
vn -0.2066 -0.9119 0.3546
vn 0.0757 -0.9885 -0.1309
vn -0.4759 -0.8768 0.0687
vn 0.6318 -0.7183 -0.2914
vn 0.6624 -0.7462 0.0665
vn 0.5039 -0.7915 0.3458
vn -0.0558 -0.7157 -0.6962
vn 0.3417 -0.7241 -0.5990
vn -0.5495 -0.7941 -0.2595
vn -0.3831 -0.7465 -0.5441
vn 0.0376 0.9969 -0.0696
vn -0.0659 0.7759 -0.6274
vn -0.4239 0.7583 -0.4953
vn -0.5795 0.7845 -0.2208
vn -0.5269 0.8397 0.1319
vn -0.2577 0.8656 0.4294
vn 0.1473 0.8421 0.5188
vn 0.6397 0.7593 0.1195
vn 0.5775 0.7722 -0.2648
vn 0.4804 0.7841 0.3929
vn 0.3190 0.7702 -0.5524
vn 0.9861 -0.0244 -0.1646
vn 0.8584 -0.0552 0.5100
vn 0.9761 -0.0816 0.2012
vn 0.6223 -0.1402 0.7701
vn 0.2597 -0.1255 0.9575
vn -0.1372 -0.1783 0.9744
vn -0.4948 -0.1178 0.8610
vn -0.7748 -0.1745 0.6077
vn -0.9599 -0.1219 0.2524
vn -0.9796 -0.1393 -0.1446
vn -0.8738 -0.0523 -0.4835
vn -0.6561 -0.0751 -0.7509
vn -0.3368 -0.0178 -0.9414
vn 0.0636 -0.0786 -0.9949
vn 0.4948 -0.0249 -0.8687
vn 0.8316 -0.0803 -0.5496
vt 0.963064 0.264188
vt 0.857181 0.264188
vt 0.912083 0.612967
vt 0.806201 0.612967
vt 0.763064 0.264188
vt 0.719926 0.612967
vt 0.684632 0.264188
vt 0.649338 0.612967
vt 0.606201 0.264188
vt 0.563064 0.612967
vt 0.512083 0.264188
vt 0.457181 0.612967
vt 0.406201 0.264188
vt 0.351299 0.612967
vt 0.312083 0.264188
vt 0.268946 0.612967
vt 0.229730 0.264188
vt 0.194436 0.612967
vt 0.151299 0.264188
vt 0.112083 0.612967
vt 0.057181 0.264188
vt 0.006201 0.612967
vt 0.053260 0.990812
vt 0.147377 0.990812
vt 0.229730 0.990812
vt 0.312083 0.990812
vt 0.406201 0.990812
vt 0.508162 0.990812
vt 0.602279 0.990812
vt 0.684632 0.990812
vt 0.766985 0.990812
vt 0.861103 0.990812
vt 0.963064 0.990812
vt 0.912083 0.089798
vt 0.723848 0.089798
vt 0.645417 0.089798
vt 0.104240 0.089798
vt 0.810123 0.089798
vt 0.272868 0.089798
vt 0.190515 0.089798
vt 0.457181 0.089798
vt 0.359142 0.089798
vt 0.559142 0.089798
vt 0.361456 0.054338
vt 0.273705 0.054338
vt 0.329074 0.020620
vt 0.256049 0.020620
vt 0.202376 0.054338
vt 0.174146 0.020620
vt 0.798428 0.054338
vt 0.733011 0.054338
vt 0.770199 0.020620
vt 0.695603 0.020620
vt 0.668765 0.054338
vt 0.615994 0.020620
vt 0.596389 0.054338
vt 0.541918 0.020620
vt 0.508308 0.054338
vt 0.471274 0.020620
vt 0.435389 0.054338
vt 0.398676 0.020620
s 1
usemtl Material.004
f 1/1/1 2/2/2 3/3/3
f 3/3/3 2/2/2 4/4/4
f 2/2/2 5/5/5 4/4/4
f 4/4/4 5/5/5 6/6/6
f 5/5/5 7/7/7 6/6/6
f 6/6/6 7/7/7 8/8/8
f 7/7/7 9/9/9 8/8/8
f 8/8/8 9/9/9 10/10/10
f 9/9/9 11/11/11 10/10/10
f 10/10/10 11/11/11 12/12/12
f 11/11/11 13/13/13 12/12/12
f 12/12/12 13/13/13 14/14/14
f 13/13/13 15/15/15 14/14/14
f 14/14/14 15/15/15 16/16/16
f 15/15/15 17/17/17 16/16/16
f 16/16/16 17/17/17 18/18/18
f 17/17/17 19/19/19 18/18/18
f 18/18/18 19/19/19 20/20/20
f 19/19/19 1/21/1 20/20/20
f 20/20/20 1/21/1 3/22/3
f 21/22/21 22/20/22 23/21/23
f 23/21/23 22/20/22 24/19/24
f 22/20/22 25/18/25 24/19/24
f 24/19/24 25/18/25 26/17/26
f 25/18/25 27/16/27 26/17/26
f 26/17/26 27/16/27 28/15/28
f 27/16/27 29/14/29 28/15/28
f 28/15/28 29/14/29 30/13/30
f 29/14/29 31/12/31 30/13/30
f 30/13/30 31/12/31 32/11/32
f 31/12/31 33/10/33 32/11/32
f 32/11/32 33/10/33 34/9/34
f 33/10/33 35/8/35 34/9/34
f 34/9/34 35/8/35 36/7/36
f 35/8/35 37/6/37 36/7/36
f 36/7/36 37/6/37 38/5/38
f 37/6/37 39/4/39 38/5/38
f 38/5/38 39/4/39 40/2/40
f 39/4/39 21/3/41 40/2/40
f 40/2/42 21/3/41 23/1/43
f 3/22/44 20/20/45 41/23/46
f 41/23/47 20/20/48 42/24/49
f 20/20/48 18/18/50 42/24/49
f 42/24/49 18/18/50 43/25/51
f 18/18/52 16/16/53 43/25/54
f 43/25/54 16/16/53 44/26/55
f 16/16/53 14/14/56 44/26/55
f 44/26/57 14/14/58 45/27/59
f 14/14/58 12/12/60 45/27/59
f 45/27/59 12/12/60 46/28/61
f 12/12/62 10/10/63 46/28/64
f 46/28/64 10/10/63 47/29/65
f 10/10/63 8/8/66 47/29/65
f 47/29/67 8/8/68 48/30/69
f 8/8/68 6/6/70 48/30/69
f 48/30/69 6/6/70 49/31/71
f 6/6/72 4/4/73 49/31/74
f 49/31/74 4/4/73 50/32/75
f 4/4/73 3/3/44 50/32/75
f 50/32/75 3/3/44 41/33/46
f 51/33/76 52/32/77 21/3/78
f 21/3/79 52/32/80 39/4/81
f 52/32/80 53/31/82 39/4/81
f 39/4/81 53/31/82 37/6/83
f 53/31/84 54/30/85 37/6/86
f 37/6/86 54/30/85 35/8/87
f 54/30/85 55/29/88 35/8/87
f 35/8/89 55/29/90 33/10/91
f 55/29/90 56/28/92 33/10/91
f 33/10/91 56/28/92 31/12/93
f 56/28/94 57/27/95 31/12/96
f 31/12/96 57/27/95 29/14/97
f 57/27/95 58/26/98 29/14/97
f 29/14/97 58/26/99 27/16/100
f 58/26/99 59/25/101 27/16/100
f 27/16/100 59/25/101 25/18/102
f 59/25/103 60/24/104 25/18/105
f 25/18/105 60/24/104 22/20/106
f 60/24/104 51/23/76 22/20/106
f 22/20/106 51/23/76 21/22/78
f 61/3/107 62/4/108 63/32/109
f 63/32/109 62/4/108 49/31/110
f 62/4/108 6/6/111 49/31/110
f 64/31/112 65/6/113 66/30/114
f 65/6/113 8/8/115 66/30/114
f 66/30/114 8/8/115 47/29/116
f 67/8/117 68/10/118 69/29/119
f 69/29/119 68/10/118 46/28/120
f 68/10/118 12/12/121 46/28/120
f 70/28/122 71/12/123 72/27/124
f 71/12/123 14/14/125 72/27/124
f 72/27/124 14/14/125 44/26/126
f 73/14/127 74/16/128 75/26/129
f 75/26/129 74/16/128 43/25/130
f 74/16/128 18/18/131 43/25/130
f 76/25/132 77/18/133 78/24/134
f 77/18/133 20/20/135 78/24/134
f 78/24/134 20/20/135 41/23/136
f 20/20/137 61/22/107 41/23/138
f 79/23/139 80/24/140 81/20/141
f 81/20/141 80/24/140 25/18/142
f 80/24/140 59/25/143 25/18/142
f 82/18/144 83/25/145 84/16/146
f 83/25/145 58/26/147 84/16/146
f 84/16/146 58/26/147 29/14/148
f 85/26/149 86/27/150 87/14/151
f 87/14/151 86/27/150 31/12/152
f 86/27/150 56/28/153 31/12/152
f 88/12/154 89/28/155 90/10/156
f 89/28/155 55/29/157 90/10/156
f 90/10/156 55/29/157 35/8/158
f 91/29/159 92/30/160 93/8/161
f 93/8/161 92/30/160 37/6/162
f 92/30/160 53/31/163 37/6/162
f 94/6/164 95/31/165 96/4/166
f 95/31/165 52/32/167 96/4/166
f 96/4/166 52/32/167 21/3/168
f 52/32/169 79/33/170 21/3/171
f 97/21/172 98/19/173 99/20/174
f 99/20/174 98/19/173 77/18/175
f 98/19/173 17/17/176 77/18/175
f 77/18/175 17/17/176 74/16/177
f 17/17/176 15/15/178 74/16/177
f 74/16/177 15/15/178 73/14/179
f 15/15/178 13/13/180 73/14/179
f 73/14/179 13/13/180 71/12/181
f 13/13/180 11/11/182 71/12/181
f 71/12/181 11/11/182 68/10/183
f 11/11/182 9/9/184 68/10/183
f 68/10/183 9/9/184 67/8/185
f 9/9/184 7/7/186 67/8/185
f 67/8/185 7/7/186 65/6/187
f 7/7/186 5/5/188 65/6/187
f 65/6/187 5/5/188 62/4/189
f 5/5/188 2/2/190 62/4/189
f 62/4/189 2/2/190 61/3/191
f 2/2/190 97/1/172 61/3/191
f 21/3/192 96/4/193 40/2/194
f 40/2/194 96/4/193 38/5/195
f 96/4/193 94/6/196 38/5/195
f 38/5/195 94/6/196 36/7/197
f 94/6/196 93/8/198 36/7/197
f 36/7/197 93/8/198 34/9/199
f 93/8/198 90/10/200 34/9/199
f 34/9/199 90/10/200 32/11/201
f 90/10/200 88/12/202 32/11/201
f 32/11/201 88/12/202 30/13/203
f 88/12/202 87/14/204 30/13/203
f 30/13/203 87/14/204 28/15/205
f 87/14/204 84/16/206 28/15/205
f 28/15/205 84/16/206 26/17/207
f 84/16/206 82/18/208 26/17/207
f 26/17/207 82/18/208 24/19/209
f 82/18/208 81/20/210 24/19/209
f 24/19/209 81/20/210 23/21/211
f 81/20/210 21/22/212 23/21/211
f 100/34/213 23/1/214 40/2/215
f 101/2/216 102/1/217 103/3/218
f 7/7/219 5/5/220 104/35/221
f 9/9/222 7/7/219 104/36/221
f 97/21/223 98/19/224 104/37/221
f 5/5/220 2/2/225 104/38/221
f 41/33/138 61/3/107 63/32/109
f 15/15/226 104/39/221 17/17/227
f 17/17/227 104/40/221 98/19/224
f 11/11/228 104/41/221 13/13/229
f 13/13/229 104/42/221 15/15/226
f 97/1/223 104/34/221 2/2/225
f 9/9/222 104/43/221 11/11/228
f 34/9/230 100/43/231 32/11/232
f 102/1/233 100/34/231 101/2/234
f 30/13/235 100/42/231 28/15/236
f 32/11/232 100/41/231 30/13/235
f 26/17/237 100/40/231 24/19/238
f 28/15/236 100/39/231 26/17/237
f 38/5/239 101/2/234 100/38/231
f 102/21/240 24/19/238 100/37/231
f 34/9/230 36/7/241 100/36/231
f 36/7/241 38/5/239 100/35/231
f 103/22/242 79/23/139 81/20/141
f 105/5/243 106/7/244 107/35/245
f 106/7/244 9/9/246 107/36/245
f 98/19/247 97/21/248 107/37/245
f 2/2/249 105/5/243 107/38/245
f 97/21/172 99/20/174 61/22/191
f 107/39/245 15/15/250 17/17/251
f 107/40/245 17/17/251 98/19/247
f 107/41/245 11/11/252 13/13/253
f 107/42/245 13/13/253 15/15/250
f 107/34/245 97/1/248 2/2/249
f 107/43/245 9/9/246 11/11/252
f 108/43/254 109/9/255 110/11/256
f 108/42/254 30/13/257 28/15/258
f 108/41/254 110/11/256 30/13/257
f 108/40/254 26/17/259 24/19/260
f 108/39/254 28/15/258 26/17/259
f 101/2/261 38/5/262 108/38/254
f 24/19/260 102/21/263 108/37/254
f 36/7/264 109/9/255 108/36/254
f 38/5/262 36/7/264 108/35/254
f 111/44/265 112/45/266 113/46/267
f 113/46/267 112/45/266 114/47/268
f 112/45/266 115/48/269 114/47/268
f 114/47/268 115/48/269 116/49/270
f 115/50/269 117/51/271 116/52/270
f 116/52/270 117/51/271 118/53/272
f 117/51/271 119/54/273 118/53/272
f 118/53/272 119/54/273 120/55/274
f 119/54/273 121/56/275 120/55/274
f 120/55/274 121/56/275 122/57/276
f 121/56/275 123/58/277 122/57/276
f 122/57/276 123/58/277 124/59/278
f 123/58/277 125/60/279 124/59/278
f 124/59/278 125/60/279 126/61/280
f 125/60/279 111/44/265 126/61/280
f 126/61/280 111/44/265 113/46/267
