# Blender 4.5.3 LTS
# www.blender.org
mtllib garbage.mtl
o garbage_plasticbottle001a_reference
v 0.478253 2.076288 0.585543
v 0.588939 2.165585 0.585543
v 0.478253 2.165585 0.585543
v 0.588939 2.076288 0.585543
v 0.833698 1.459486 0.177426
v 0.622821 2.048135 0.489603
v 0.971920 1.459486 0.500000
v 0.587790 2.048135 0.431500
v 0.500000 1.459486 0.043811
v 0.500000 1.964043 0.339631
v 0.503219 2.048135 0.407434
v 0.405385 1.942077 0.417493
v 0.166302 1.459486 0.177426
v 0.478253 2.076288 0.393829
v 0.422910 2.165585 0.489686
v 0.478253 2.165585 0.393829
v 0.422910 2.076288 0.489686
v 0.503219 2.048135 0.571773
v 0.460062 2.081746 0.493081
v 0.460062 2.048135 0.493081
v 0.503219 2.081746 0.571773
v 0.503219 2.081746 0.407434
v 0.644282 2.076288 0.489686
v 0.588939 2.165585 0.393829
v 0.644282 2.165585 0.489686
v 0.588939 2.076288 0.393829
v 0.408952 1.942077 0.562830
v 0.354284 1.952839 0.440950
v 0.357124 1.952839 0.542117
v 0.258650 1.921134 0.439287
v 0.260229 1.923391 0.540455
v 0.222026 1.833519 0.439287
v 0.222470 1.836200 0.540455
v 0.197633 1.589994 0.436651
v 0.198077 1.592675 0.537818
v 0.500000 0.075413 0.984349
v 0.833698 -0.000021 0.822574
v 0.854296 0.075413 0.842486
v 0.500000 -0.000021 0.956189
v 0.854296 1.370137 0.842486
v 0.500000 1.370137 0.984349
v 1.001051 1.370137 0.500000
v 1.001051 0.075413 0.500000
v 0.971920 -0.000021 0.500000
v 0.384848 2.048135 0.447836
v 0.230238 1.989084 0.453290
v 0.150233 1.841214 0.453290
v 0.098494 1.537937 0.450653
v 0.384848 2.048135 0.530494
v 0.230238 1.989084 0.522616
v 0.150233 1.841214 0.522616
v 0.098494 1.537937 0.519980
v 0.854296 1.370137 0.157514
v 0.854296 0.075413 0.157514
v 0.500000 1.370137 0.015651
v 0.500000 0.075413 0.015651
v 0.145704 1.370137 0.157514
v 0.145704 0.075413 0.157514
v -0.001051 1.370137 0.500000
v -0.001051 0.075413 0.500000
v 0.145704 1.370137 0.842486
v 0.145704 0.075413 0.842486
v 0.166302 -0.000021 0.822574
v 0.028080 -0.000021 0.500000
v 0.166302 -0.000021 0.177426
v 0.500000 -0.000021 0.043811
v 0.833698 -0.000021 0.177426
v 0.622821 2.081746 0.489603
v 0.587790 2.081746 0.431500
v 0.500000 1.459486 0.956189
v 0.833698 1.459486 0.822574
v 0.166302 1.459486 0.822574
v 0.028080 1.459486 0.500000
v 0.587790 2.048135 0.547706
v 0.587790 2.081746 0.547706
v 0.500000 1.964043 0.660369
vn -0.0000 -0.0000 1.0000
vn 0.6359 0.4098 -0.6540
vn 0.9597 0.2810 -0.0006
vn 0.9086 0.4177 -0.0006
vn 0.5513 0.3484 -0.7581
vn 0.0027 0.4080 -0.9130
vn -0.2164 0.5840 -0.7824
vn -0.1294 0.3722 -0.9191
vn -0.7884 0.5216 -0.3262
vn -0.6594 0.5271 -0.5360
vn -0.8660 -0.0000 -0.5000
vn -0.8660 -0.0000 0.5000
vn -0.8768 -0.0000 0.4809
vn -0.9998 -0.0000 0.0174
vn -0.8930 -0.0000 -0.4500
vn 0.8660 -0.0000 -0.5000
vn -0.2045 -0.9788 0.0053
vn 0.0507 -0.9987 0.0048
vn -0.2046 -0.9788 0.0054
vn 0.6728 -0.7398 0.0024
vn 0.9687 -0.2484 -0.0007
vn 0.9950 -0.0996 -0.0017
vn 0.8660 -0.0000 0.5000
vn -0.0000 -0.0000 -1.0000
vn -0.0000 -0.1784 0.9840
vn 0.6527 -0.3549 0.6693
vn 0.6868 -0.1813 0.7039
vn -0.0000 -0.3497 0.9369
vn 0.6900 0.1550 0.7070
vn -0.0000 0.1525 0.9883
vn 0.9875 0.1575 -0.0000
vn 0.9829 -0.1842 -0.0000
vn 0.9329 -0.3602 -0.0000
vn -0.2000 0.1654 -0.9657
vn -0.2000 0.1649 -0.9658
vn -0.1301 0.1132 -0.9850
vn -0.1301 0.1131 -0.9850
vn -0.1843 0.0657 -0.9807
vn -0.1700 0.0332 -0.9849
vn -0.1525 0.4270 0.8913
vn -0.2128 0.1942 0.9576
vn -0.6928 0.4934 0.5258
vn -0.2129 0.1942 0.9576
vn -0.1749 0.1517 0.9728
vn -0.2292 0.0723 0.9707
vn -0.2087 0.0196 0.9778
vn 0.6900 0.1550 -0.7070
vn 0.6868 -0.1813 -0.7039
vn -0.0000 0.1525 -0.9883
vn -0.0000 -0.1784 -0.9840
vn -0.6900 0.1550 -0.7070
vn -0.6868 -0.1813 -0.7039
vn -0.9875 0.1575 -0.0000
vn -0.9829 -0.1842 -0.0000
vn -0.6900 0.1550 0.7070
vn -0.6868 -0.1813 0.7039
vn -0.6527 -0.3549 0.6693
vn -0.9329 -0.3602 -0.0000
vn -0.6527 -0.3549 -0.6693
vn -0.0000 -0.3497 -0.9369
vn 0.6527 -0.3549 -0.6693
vn 0.8564 -0.0000 -0.5163
vn 0.6074 -0.0000 -0.7944
vn 0.2737 -0.0000 -0.9618
vn 0.0098 0.4124 0.9109
vn 0.6401 0.4146 0.6469
vn -0.0000 -1.0000 -0.0000
vn -0.1207 0.9927 -0.0000
vn -0.0000 1.0000 -0.0000
vn -0.1814 0.9834 -0.0000
vn -0.6593 0.7519 -0.0000
vn -0.9451 0.3268 -0.0000
vn -0.9454 0.3259 -0.0000
vn -0.7888 0.5908 0.1696
vn -0.7996 0.5716 -0.1841
vn -0.7011 0.5457 0.4590
vn -0.7517 0.6390 0.1630
vn -0.8667 0.4989 -0.0047
vn -0.7585 0.6277 -0.1752
vn 0.5552 0.3785 0.7406
vn 0.2737 -0.0000 0.9618
vn 0.6074 -0.0000 0.7944
vn 0.8564 -0.0000 0.5163
vn -0.2456 0.6337 0.7336
vt 0.260258 0.105451
vt 0.246638 0.118078
vt 0.246564 0.105488
vt 0.260332 0.118042
vt 0.032886 0.159011
vt 0.029787 0.222045
vt 0.004021 0.158806
vt 0.040085 0.221773
vt 0.062203 0.159046
vt 0.059591 0.214325
vt 0.057368 0.222228
vt 0.078351 0.221807
vt 0.092777 0.159129
vt 0.260258 0.080306
vt 0.246527 0.092878
vt 0.246564 0.080269
vt 0.260221 0.092878
vt 0.141052 0.221634
vt 0.107135 0.227510
vt 0.107026 0.221728
vt 0.141045 0.227417
vt 0.078316 0.222297
vt 0.057051 0.227897
vt 0.057058 0.222399
vt 0.078425 0.227795
vt 0.260369 0.055106
vt 0.246638 0.067679
vt 0.246675 0.055106
vt 0.260332 0.067715
vt 0.270903 0.179900
vt 0.275332 0.174889
vt 0.275343 0.179880
vt 0.267803 0.175185
vt 0.275321 0.164278
vt 0.267164 0.164629
vt 0.275304 0.154285
vt 0.267250 0.154332
vt 0.275310 0.128570
vt 0.268766 0.128851
vt 0.260332 0.042497
vt 0.246638 0.042534
vt 0.180977 0.012225
vt 0.211222 0.004101
vt 0.211250 0.012062
vt 0.180936 0.004255
vt 0.211550 0.148860
vt 0.181416 0.149023
vt 0.240330 0.148792
vt 0.240330 0.011994
vt 0.240330 0.004037
vt 0.240820 0.183815
vt 0.251341 0.181153
vt 0.246535 0.193395
vt 0.244654 0.177131
vt 0.251558 0.163915
vt 0.244602 0.163689
vt 0.251594 0.153798
vt 0.246610 0.154337
vt 0.251216 0.122876
vt 0.244633 0.129840
vt 0.266474 0.193489
vt 0.267890 0.175221
vt 0.271251 0.180095
vt 0.261290 0.181478
vt 0.267170 0.164745
vt 0.261189 0.164196
vt 0.267193 0.154324
vt 0.261201 0.153634
vt 0.268636 0.128859
vt 0.260867 0.121508
vt 0.003903 0.011994
vt 0.032682 0.148860
vt 0.003903 0.148792
vt 0.032982 0.012062
vt 0.062816 0.149023
vt 0.063256 0.012225
vt 0.093090 0.149186
vt 0.093390 0.012388
vt 0.122169 0.149254
vt 0.122169 0.012456
vt 0.151248 0.149186
vt 0.150948 0.012388
vt 0.181522 0.149023
vt 0.181082 0.012225
vt 0.181042 0.004255
vt 0.150921 0.004409
vt 0.122169 0.004472
vt 0.093417 0.004409
vt 0.063296 0.004255
vt 0.033010 0.004101
vt 0.003903 0.004037
vt 0.040218 0.221520
vt 0.029734 0.226990
vt 0.029725 0.222066
vt 0.040198 0.227297
vt 0.057063 0.222427
vt 0.057054 0.227351
vt 0.211545 0.149271
vt 0.181497 0.158977
vt 0.181465 0.149436
vt 0.211567 0.158822
vt 0.240344 0.149202
vt 0.240344 0.158758
vt 0.282319 0.220565
vt 0.255967 0.193546
vt 0.274921 0.201791
vt 0.236561 0.200661
vt 0.228071 0.218967
vt 0.235469 0.237741
vt 0.254422 0.245986
vt 0.273828 0.238871
vt 0.261423 0.181432
vt 0.266418 0.193346
vt 0.256895 0.189002
vt 0.246530 0.193346
vt 0.251419 0.181432
vt 0.260469 0.164010
vt 0.252079 0.164010
vt 0.260469 0.153849
vt 0.252079 0.153849
vt 0.260150 0.121938
vt 0.251760 0.121938
vt 0.123642 0.168747
vt 0.150463 0.159506
vt 0.125161 0.177872
vt 0.121929 0.159604
vt 0.117623 0.168734
vt 0.093027 0.159386
vt 0.116378 0.177648
vt 0.106977 0.221870
vt 0.141198 0.221808
vt 0.185275 0.219467
vt 0.166664 0.227392
vt 0.166650 0.219553
vt 0.185308 0.227306
vt 0.202572 0.219431
vt 0.202558 0.227270
vt 0.261403 0.039238
vt 0.261403 0.018603
vt 0.267360 0.028920
vt 0.249490 0.018603
vt 0.243533 0.028920
vt 0.249490 0.039238
vt 0.032716 0.149271
vt 0.003917 0.158758
vt 0.003917 0.149202
vt 0.032694 0.158822
vt 0.062245 0.149436
vt 0.062212 0.158977
vt 0.092601 0.149601
vt 0.092579 0.159133
vt 0.121676 0.149669
vt 0.121676 0.159197
vt 0.150750 0.149601
vt 0.150772 0.159133
vt 0.181107 0.149436
vt 0.181139 0.158977
vt 0.241421 0.159527
vt 0.212466 0.219255
vt 0.202676 0.219117
vt 0.212671 0.159195
vt 0.187424 0.209932
vt 0.181477 0.159620
vt 0.150676 0.159853
vt 0.166749 0.219457
vt 0.185321 0.219340
s 1
usemtl garbage001a_01
f 1/1/1 2/2/1 3/3/1
f 1/1/1 4/4/1 2/2/1
f 5/5/2 6/6/3 7/7/4
f 5/5/2 8/8/5 6/6/3
f 9/9/6 8/8/5 5/5/2
f 9/9/6 10/10/7 8/8/5
f 10/10/7 11/11/8 8/8/5
f 10/10/7 12/12/9 11/11/8
f 13/13/10 12/12/9 10/10/7
f 13/13/10 10/10/7 9/9/6
f 14/14/11 15/15/11 16/16/11
f 14/14/11 17/17/11 15/15/11
f 17/17/12 3/3/12 15/15/12
f 17/17/12 1/1/12 3/3/12
f 18/18/13 19/19/14 20/20/14
f 18/18/13 21/21/13 19/19/14
f 20/22/14 22/23/15 11/24/15
f 20/22/14 19/25/14 22/23/15
f 23/26/16 24/27/16 25/28/16
f 23/26/16 26/29/16 24/27/16
f 27/30/17 28/31/18 12/32/19
f 27/30/17 29/33/18 28/31/18
f 29/33/18 30/34/20 28/31/18
f 29/33/18 31/35/20 30/34/20
f 31/35/20 32/36/21 30/34/20
f 31/35/20 33/37/21 32/36/21
f 33/37/21 34/38/22 32/36/21
f 33/37/21 35/39/22 34/38/22
f 4/40/23 25/28/23 2/41/23
f 4/40/23 23/26/23 25/28/23
f 26/29/24 16/16/24 24/27/24
f 26/29/24 14/14/24 16/16/24
f 36/42/25 37/43/26 38/44/27
f 36/42/25 39/45/28 37/43/26
f 36/42/25 40/46/29 41/47/30
f 36/42/25 38/44/27 40/46/29
f 38/44/27 42/48/31 40/46/29
f 38/44/27 43/49/32 42/48/31
f 38/44/27 44/50/33 43/49/32
f 38/44/27 37/43/26 44/50/33
f 12/51/9 45/52/34 11/53/8
f 12/51/9 28/54/35 45/52/34
f 28/54/35 46/55/36 45/52/34
f 28/54/35 30/56/37 46/55/36
f 30/56/37 47/57/38 46/55/36
f 30/56/37 32/58/38 47/57/38
f 32/58/38 48/59/39 47/57/38
f 32/58/38 34/60/39 48/59/39
f 18/61/40 29/62/41 27/63/42
f 18/61/40 49/64/43 29/62/41
f 49/64/43 31/65/44 29/62/41
f 49/64/43 50/66/44 31/65/44
f 50/66/44 33/67/45 31/65/44
f 50/66/44 51/68/45 33/67/45
f 51/68/45 35/69/46 33/67/45
f 51/68/45 52/70/46 35/69/46
f 43/71/32 53/72/47 42/73/31
f 43/71/32 54/74/48 53/72/47
f 54/74/48 55/75/49 53/72/47
f 54/74/48 56/76/50 55/75/49
f 56/76/50 57/77/51 55/75/49
f 56/76/50 58/78/52 57/77/51
f 58/78/52 59/79/53 57/77/51
f 58/78/52 60/80/54 59/79/53
f 60/80/54 61/81/55 59/79/53
f 60/80/54 62/82/56 61/81/55
f 62/82/56 41/83/30 61/81/55
f 62/82/56 36/84/25 41/83/30
f 62/82/56 39/85/28 36/84/25
f 62/82/56 63/86/57 39/85/28
f 60/80/54 63/86/57 62/82/56
f 60/80/54 64/87/58 63/86/57
f 58/78/52 64/87/58 60/80/54
f 58/78/52 65/88/59 64/87/58
f 56/76/50 65/88/59 58/78/52
f 56/76/50 66/89/60 65/88/59
f 54/74/48 66/89/60 56/76/50
f 54/74/48 67/90/61 66/89/60
f 43/71/32 67/90/61 54/74/48
f 43/71/32 44/91/33 67/90/61
f 8/92/5 68/93/62 6/94/3
f 8/92/5 69/95/63 68/93/62
f 11/96/8 69/95/63 8/92/5
f 11/96/8 22/97/64 69/95/63
f 40/98/29 70/99/65 41/100/30
f 40/98/29 71/101/66 70/99/65
f 42/102/31 71/101/66 40/98/29
f 42/102/31 7/103/4 71/101/66
f 64/104/67 39/105/67 63/106/67
f 64/104/67 37/107/67 39/105/67
f 64/104/67 44/108/67 37/107/67
f 64/104/67 67/109/67 44/108/67
f 64/104/67 66/110/67 67/109/67
f 64/104/67 65/111/67 66/110/67
f 49/112/68 18/113/69 20/114/69
f 49/112/68 20/114/69 11/115/69
f 45/116/70 49/112/68 11/115/69
f 45/116/70 50/117/71 49/112/68
f 45/116/70 46/118/71 50/117/71
f 46/118/71 51/119/72 50/117/71
f 46/118/71 47/120/73 51/119/72
f 47/120/73 52/121/74 51/119/72
f 47/120/73 48/122/75 52/121/74
f 52/123/74 72/124/76 35/125/77
f 73/126/78 72/124/76 52/123/74
f 48/127/75 73/126/78 52/123/74
f 13/128/10 73/126/78 48/127/75
f 34/129/79 13/128/10 48/127/75
f 12/130/9 13/128/10 34/129/79
f 12/130/9 34/129/79 35/125/77
f 35/125/77 72/124/76 12/130/9
f 27/131/42 12/130/9 72/124/76
f 74/132/80 21/133/81 18/134/40
f 74/132/80 75/135/82 21/133/81
f 6/136/3 75/135/82 74/132/80
f 6/136/3 68/137/83 75/135/82
f 3/138/69 16/139/69 15/140/69
f 3/138/69 24/141/69 16/139/69
f 3/138/69 25/142/69 24/141/69
f 3/138/69 2/143/69 25/142/69
f 53/144/47 7/145/4 42/146/31
f 53/144/47 5/147/2 7/145/4
f 55/148/49 5/147/2 53/144/47
f 55/148/49 9/149/6 5/147/2
f 57/150/51 9/149/6 55/148/49
f 57/150/51 13/151/10 9/149/6
f 59/152/53 13/151/10 57/150/51
f 59/152/53 73/153/78 13/151/10
f 61/154/55 73/153/78 59/152/53
f 61/154/55 72/155/76 73/153/78
f 41/156/30 72/155/76 61/154/55
f 41/156/30 70/157/65 72/155/76
f 7/158/4 6/159/3 74/160/80
f 7/158/4 74/160/80 71/161/66
f 71/161/66 74/160/80 76/162/84
f 71/161/66 76/162/84 70/163/65
f 70/163/65 76/162/84 72/164/76
f 72/164/76 76/162/84 27/165/42
f 76/162/84 18/166/40 27/165/42
f 74/160/80 18/166/40 76/162/84
