# Blender 4.5.3 LTS
# www.blender.org
mtllib garbage.mtl
o garbage_plasticbottle002a_reference
v 0.816168 1.978482 0.596148
v 0.871823 2.126297 0.499750
v 0.816168 2.126297 0.596148
v 0.871823 1.978482 0.499750
v 0.749536 0.056958 0.260452
v 0.995201 1.164005 0.336532
v 0.992084 0.056958 0.336532
v 0.749536 1.164005 0.260526
v 0.899522 1.718905 0.425761
v 0.308900 1.176229 0.289150
v 0.365649 0.056958 0.278964
v 0.004799 1.164005 0.403181
v 0.192666 1.238903 0.393734
v 0.004799 0.056958 0.403181
v 0.022230 -0.002495 0.410762
v 0.371144 -0.002495 0.296656
v 0.741640 -0.002495 0.278143
v 0.961470 -0.002495 0.349538
v 0.749536 1.951947 0.430891
v 0.747054 1.985566 0.439465
v 0.826777 1.985566 0.464279
v 0.860120 1.951947 0.449688
v 0.749536 1.718905 0.398362
v 0.500673 1.434849 0.332316
v 0.443474 1.434849 0.343254
v 0.555111 1.670007 0.386794
v 0.526540 1.654470 0.393201
v 0.472350 1.726212 0.422458
v 0.603370 1.951947 0.450690
v 0.171534 1.839246 0.450728
v 0.215343 1.725166 0.421253
v 0.071398 1.707762 0.453080
v 0.171534 1.668816 0.421253
v 0.686711 1.985566 0.465001
v 0.649203 1.978482 0.499750
v 0.704858 2.126297 0.596148
v 0.649203 2.126297 0.499750
v 0.704858 1.978482 0.596148
v 0.704858 1.978482 0.403353
v 0.704858 2.126297 0.403353
v 0.816168 2.126297 0.403353
v 0.816168 1.978482 0.403353
v 0.603370 1.951947 0.553256
v 0.686711 1.985566 0.538944
v 0.171534 1.839246 0.553218
v 0.472350 1.726212 0.581488
v 0.215343 1.725166 0.582692
v 0.171534 1.668816 0.582692
v 0.749536 1.951947 0.573054
v 0.747054 1.985566 0.562871
v 0.860120 1.951947 0.554258
v 0.826777 1.985566 0.539666
v 0.899522 1.718905 0.578185
v 0.749536 1.718905 0.605583
v 0.071398 1.707762 0.548091
v 0.004799 1.164005 0.587373
v 0.192588 1.240620 0.600173
v 0.308900 1.176229 0.704177
v 0.365649 0.056958 0.714363
v 0.749536 1.164005 0.739548
v 0.749536 0.056958 0.735961
v 0.992084 0.056958 0.656795
v 0.961470 -0.002495 0.643733
v 0.995201 1.164005 0.656795
v 0.004799 0.056958 0.587373
v 0.741640 -0.002495 0.718213
v 0.371144 -0.002495 0.696615
v 0.022230 -0.002495 0.579961
v 0.500229 1.434849 0.661366
v 0.553792 1.666193 0.615938
v 0.525198 1.650287 0.609295
v 0.443474 1.434849 0.650074
vn 0.8660 -0.0000 0.5000
vn 0.1236 -0.1560 -0.9800
vn 0.2739 0.1078 -0.9557
vn 0.2964 -0.1653 -0.9407
vn 0.1151 0.1127 -0.9869
vn 0.2103 0.1740 -0.9620
vn -0.1881 0.2413 -0.9520
vn -0.1909 -0.1375 -0.9719
vn -0.2747 0.2545 -0.9272
vn -0.2339 0.3838 -0.8933
vn -0.3251 -0.1303 -0.9366
vn -0.3079 -0.2542 -0.9168
vn -0.1790 -0.2715 -0.9456
vn 0.1219 -0.3093 -0.9431
vn 0.2873 -0.3256 -0.9008
vn 0.0152 0.3077 -0.9514
vn 0.0095 0.4708 -0.8822
vn 0.2033 0.4140 -0.8873
vn 0.1903 0.2765 -0.9420
vn 0.0294 0.1967 -0.9800
vn -0.1141 0.2580 -0.9594
vn -0.2097 0.2880 -0.9344
vn -0.1547 0.2277 -0.9614
vn -0.2692 0.2228 -0.9370
vn -0.1353 0.1902 -0.9724
vn -0.2140 0.6010 -0.7700
vn -0.1302 0.1709 -0.9767
vn -0.1302 0.1708 -0.9767
vn -0.1922 0.1258 -0.9733
vn -0.3183 0.8180 -0.4792
vn -0.8660 -0.0000 0.5000
vn -0.0000 -0.0000 1.0000
vn -0.8660 -0.0000 -0.5000
vn 0.8660 -0.0000 -0.5000
vn 0.5000 -0.0000 -0.8660
vn -0.0000 -0.0000 -1.0000
vn -0.2126 0.6019 0.7697
vn -0.3134 0.8218 0.4758
vn -0.5544 0.8323 -0.0000
vn -0.5543 0.8323 -0.0000
vn -0.4527 -0.8916 -0.0053
vn 0.4413 -0.8974 -0.0000
vn 0.4414 -0.8973 -0.0000
vn 0.9536 -0.3011 -0.0000
vn 0.0149 0.3141 0.9493
vn 0.0089 0.4823 0.8759
vn 0.1861 0.2843 0.9405
vn 0.1947 0.4288 0.8822
vn 0.2182 0.1684 0.9613
vn 0.0277 0.1884 0.9817
vn -0.1352 0.1814 0.9741
vn -0.1391 0.1706 0.9755
vn -0.1391 0.1707 0.9755
vn -0.2103 0.1155 0.9708
vn -0.2104 0.1155 0.9708
vn -0.3039 0.1768 0.9362
vn -0.2491 0.3615 0.8985
vn -0.2033 0.2355 0.9504
vn -0.2297 -0.1115 0.9668
vn 0.1147 0.1094 0.9874
vn 0.1260 -0.1583 0.9793
vn 0.3106 -0.1676 0.9356
vn 0.2978 -0.3287 0.8963
vn 0.2904 0.1012 0.9515
vn -0.3257 -0.1281 0.9368
vn 0.1235 -0.3117 0.9421
vn -0.1860 -0.2718 0.9442
vn -0.3140 -0.2541 0.9148
vn -0.1233 0.2428 0.9622
vn -0.1562 0.2050 0.9662
vn -0.2711 0.1973 0.9421
vn -0.2154 0.2740 0.9373
vn -0.0000 1.0000 -0.0000
vn 0.8473 0.5312 -0.0014
vn 0.8473 0.5311 -0.0014
vn 0.4795 0.8775 -0.0024
vn -0.0000 -1.0000 -0.0000
vn 0.8896 0.4568 -0.0000
vn 0.7100 0.7042 -0.0000
vn 0.9857 0.1684 -0.0000
vn 0.9965 0.0839 -0.0000
vn 0.9715 -0.2369 -0.0000
vn 0.8891 -0.4578 -0.0000
vn -0.9263 0.3768 -0.0000
vn -0.9981 0.0609 -0.0000
vn -0.9899 -0.1421 -0.0000
vn -0.9596 -0.2813 -0.0000
vn -0.9127 0.4086 0.0002
vn -0.8871 0.4616 -0.0000
vn -0.9912 -0.1321 -0.0051
vt 0.760295 0.193461
vt 0.750550 0.210817
vt 0.760249 0.210846
vt 0.750550 0.193433
vt 0.675081 0.222569
vt 0.698473 0.330456
vt 0.698170 0.223828
vt 0.675081 0.329194
vt 0.688636 0.385049
vt 0.632116 0.330384
vt 0.637689 0.222491
vt 0.601889 0.330516
vt 0.620190 0.337763
vt 0.601889 0.223891
vt 0.603535 0.218285
vt 0.638115 0.217013
vt 0.674206 0.217080
vt 0.695118 0.218255
vt 0.674040 0.407435
vt 0.673747 0.410789
vt 0.681337 0.411200
vt 0.684664 0.407790
vt 0.674239 0.384541
vt 0.650475 0.356055
vt 0.644854 0.356156
vt 0.655429 0.379503
vt 0.652615 0.378070
vt 0.647174 0.385336
vt 0.659725 0.407581
vt 0.617789 0.396352
vt 0.622224 0.384996
vt 0.608051 0.383634
vt 0.617970 0.379531
vt 0.667731 0.411089
vt 0.721385 0.193547
vt 0.711640 0.210903
vt 0.721385 0.210932
vt 0.711686 0.193519
vt 0.770017 0.193519
vt 0.769970 0.210903
vt 0.731083 0.193519
vt 0.731130 0.210903
vt 0.740852 0.210846
vt 0.740805 0.193461
vt 0.770427 0.409800
vt 0.762484 0.413661
vt 0.764970 0.419345
vt 0.773876 0.417685
vt 0.812833 0.398401
vt 0.818831 0.405769
vt 0.802767 0.383102
vt 0.783222 0.387092
vt 0.808436 0.386904
vt 0.796386 0.381485
vt 0.787791 0.378315
vt 0.790432 0.380266
vt 0.755995 0.409771
vt 0.762428 0.413446
vt 0.770528 0.409888
vt 0.756313 0.413191
vt 0.745246 0.410124
vt 0.748635 0.413572
vt 0.741193 0.387050
vt 0.755757 0.386546
vt 0.783219 0.387307
vt 0.813038 0.398443
vt 0.808511 0.386939
vt 0.812823 0.381383
vt 0.822933 0.385549
vt 0.829203 0.331773
vt 0.810623 0.339283
vt 0.798414 0.331734
vt 0.792753 0.222154
vt 0.754779 0.330503
vt 0.754805 0.222244
vt 0.731507 0.223516
vt 0.734616 0.217841
vt 0.731200 0.331826
vt 0.829203 0.223466
vt 0.755712 0.216652
vt 0.792342 0.216575
vt 0.827541 0.217764
vt 0.779892 0.357783
vt 0.774951 0.381063
vt 0.777814 0.379566
vt 0.785561 0.357875
vt 0.644894 0.370740
vt 0.628558 0.380172
vt 0.639449 0.380172
vt 0.623113 0.370740
vt 0.628558 0.361309
vt 0.639449 0.361309
vt 0.812723 0.381365
vt 0.805959 0.361528
vt 0.808507 0.387001
vt 0.810685 0.339232
vt 0.798408 0.331643
vt 0.800522 0.346999
vt 0.828836 0.184674
vt 0.845752 0.209401
vt 0.845752 0.190405
vt 0.828836 0.214895
vt 0.800327 0.213471
vt 0.773480 0.204690
vt 0.773480 0.195312
vt 0.800327 0.186336
vt 0.709866 0.408758
vt 0.711362 0.412607
vt 0.719089 0.412607
vt 0.720584 0.408758
vt 0.707413 0.384553
vt 0.723037 0.384553
vt 0.698268 0.330697
vt 0.731094 0.330697
vt 0.731094 0.223670
vt 0.698268 0.223670
vt 0.699601 0.218020
vt 0.729755 0.218020
vt 0.818879 0.405840
vt 0.823195 0.385542
vt 0.813086 0.399116
vt 0.832093 0.389865
vt 0.828922 0.331474
vt 0.847101 0.331474
vt 0.847101 0.222979
vt 0.828922 0.222979
vt 0.829654 0.217356
vt 0.846353 0.217356
vt 0.785747 0.358101
vt 0.800548 0.347170
vt 0.798224 0.331945
vt 0.794796 0.357077
vt 0.778044 0.379962
vt 0.789135 0.374461
vt 0.787804 0.378203
vt 0.783238 0.386914
s 1
usemtl garbage001a_01
f 1/1/1 2/2/1 3/3/1
f 1/1/1 4/4/1 2/2/1
f 5/5/2 6/6/3 7/7/4
f 8/8/5 9/9/6 6/6/3
f 5/5/2 8/8/5 6/6/3
f 5/5/2 10/10/7 8/8/5
f 5/5/2 11/11/8 10/10/7
f 10/10/7 12/12/9 13/13/10
f 10/10/7 14/14/11 12/12/9
f 10/10/7 11/11/8 14/14/11
f 11/11/8 15/15/12 14/14/11
f 11/11/8 16/16/13 15/15/12
f 5/5/2 16/16/13 11/11/8
f 5/5/2 17/17/14 16/16/13
f 7/7/4 17/17/14 5/5/2
f 7/7/4 18/18/15 17/17/14
f 19/19/16 20/20/17 21/21/18
f 19/19/16 21/21/18 22/22/19
f 23/23/20 19/19/16 22/22/19
f 23/23/20 22/22/19 9/9/6
f 8/8/5 23/23/20 9/9/6
f 24/24/21 23/23/20 8/8/5
f 24/24/21 8/8/5 10/10/7
f 25/25/22 24/24/21 10/10/7
f 25/25/22 26/26/23 24/24/21
f 25/25/22 27/27/24 26/26/23
f 27/27/24 28/28/25 26/26/23
f 29/29/26 26/26/23 28/28/25
f 28/28/25 30/30/27 29/29/26
f 28/28/25 31/31/28 30/30/27
f 31/31/28 32/32/29 30/30/27
f 31/31/28 33/33/29 32/32/29
f 13/13/10 32/32/29 33/33/29
f 13/13/10 12/12/9 32/32/29
f 26/26/23 23/23/20 24/24/21
f 29/29/26 23/23/20 26/26/23
f 29/29/26 19/19/16 23/23/20
f 29/29/26 20/20/17 19/19/16
f 29/29/26 34/34/30 20/20/17
f 35/35/31 36/36/31 37/37/31
f 35/35/31 38/38/31 36/36/31
f 38/39/32 3/3/32 36/40/32
f 38/39/32 1/1/32 3/3/32
f 39/41/33 37/37/33 40/42/33
f 39/41/33 35/35/33 37/37/33
f 4/4/34 41/43/35 2/2/34
f 4/4/34 42/44/35 41/43/35
f 42/44/35 40/42/36 41/43/35
f 42/44/35 39/41/36 40/42/36
f 43/45/37 44/46/38 34/47/30
f 43/45/37 34/47/30 29/48/26
f 29/48/26 45/49/39 43/45/37
f 29/48/26 30/50/40 45/49/39
f 46/51/41 31/52/42 28/53/41
f 46/51/41 47/54/43 31/52/42
f 47/54/43 33/55/44 31/52/42
f 47/54/43 48/56/44 33/55/44
f 49/57/45 44/58/38 43/59/37
f 49/57/45 50/60/46 44/58/38
f 51/61/47 52/62/48 50/60/46
f 51/61/47 50/60/46 49/57/45
f 53/63/49 51/61/47 49/57/45
f 53/63/49 49/57/45 54/64/50
f 54/64/50 49/57/45 43/59/37
f 46/65/51 54/64/50 43/59/37
f 45/66/52 46/65/51 43/59/37
f 45/66/52 47/67/53 46/65/51
f 45/66/52 48/68/54 47/67/53
f 45/66/52 55/69/55 48/68/54
f 48/68/54 55/69/55 56/70/56
f 48/68/54 56/70/56 57/71/57
f 57/71/57 56/70/56 58/72/58
f 56/70/56 59/73/59 58/72/58
f 60/74/60 58/72/58 59/73/59
f 60/74/60 59/73/59 61/75/61
f 62/76/62 60/74/60 61/75/61
f 61/75/61 63/77/63 62/76/62
f 64/78/64 53/63/49 54/64/50
f 65/79/65 59/73/59 56/70/56
f 61/75/61 66/80/66 63/77/63
f 59/73/59 66/80/66 61/75/61
f 59/73/59 67/81/67 66/80/66
f 65/79/65 67/81/67 59/73/59
f 65/79/65 68/82/68 67/81/67
f 62/76/62 64/78/64 60/74/60
f 64/78/64 54/64/50 60/74/60
f 60/74/60 54/64/50 69/83/69
f 54/64/50 70/84/70 69/83/69
f 69/83/69 70/84/70 71/85/71
f 70/84/70 46/65/51 71/85/71
f 46/65/51 70/84/70 54/64/50
f 60/74/60 69/83/69 58/72/58
f 69/83/69 72/86/72 58/72/58
f 69/83/69 71/85/71 72/86/72
f 2/87/73 36/88/73 3/89/73
f 2/87/73 37/90/73 36/88/73
f 2/87/73 40/91/73 37/90/73
f 2/87/73 41/92/73 40/91/73
f 48/93/44 13/94/74 33/95/44
f 48/93/44 57/96/75 13/94/74
f 13/94/74 57/96/75 58/97/76
f 13/94/74 58/97/76 10/98/76
f 66/99/77 18/100/77 63/101/77
f 66/99/77 17/102/77 18/100/77
f 66/99/77 16/103/77 17/102/77
f 66/99/77 15/104/77 16/103/77
f 66/99/77 68/105/77 15/104/77
f 66/99/77 67/106/77 68/105/77
f 22/107/78 21/108/79 52/109/79
f 22/107/78 52/109/79 51/110/78
f 9/111/80 22/107/78 51/110/78
f 9/111/80 51/110/78 53/112/80
f 6/113/81 9/111/80 53/112/80
f 6/113/81 53/112/80 64/114/81
f 62/115/82 6/113/81 64/114/81
f 62/115/82 7/116/82 6/113/81
f 62/115/82 18/117/83 7/116/82
f 62/115/82 63/118/83 18/117/83
f 30/119/40 55/120/84 45/121/39
f 30/119/40 32/122/84 55/120/84
f 32/122/84 56/123/85 55/120/84
f 32/122/84 12/124/85 56/123/85
f 56/123/85 12/124/85 14/125/86
f 56/123/85 14/125/86 65/126/86
f 14/125/86 68/127/87 65/126/86
f 14/125/86 15/128/87 68/127/87
f 72/129/88 10/130/89 58/131/89
f 72/129/88 25/132/88 10/130/89
f 71/133/90 25/132/88 72/129/88
f 71/133/90 27/134/90 25/132/88
f 28/135/41 27/134/90 71/133/90
f 28/135/41 71/133/90 46/136/41
