# Blender 4.5.3 LTS
# www.blender.org
mtllib garbage.mtl
o garbage_plasticbottle003a_reference
v 0.398098 0.103316 0.253988
v 0.449407 -0.002321 0.294036
v 0.500000 0.091438 0.500000
v 0.746013 0.103316 0.601902
v 0.705964 -0.002321 0.450399
v 0.746013 0.103316 0.398098
v 0.705964 -0.002321 0.549601
v 0.456787 1.650476 0.425153
v 0.413574 1.757106 0.500000
v 0.456787 1.757106 0.425153
v 0.413574 1.650476 0.500000
v 0.586426 1.650476 0.500000
v 0.543213 1.757106 0.425153
v 0.586426 1.757106 0.500000
v 0.543213 1.650476 0.425153
v 0.543213 1.650476 0.574847
v 0.543213 1.757106 0.574847
v 0.500000 0.103316 0.500000
v 0.449407 -0.002321 0.705964
v 0.398098 0.103316 0.746013
v 0.550593 -0.002321 0.705964
v 0.601902 0.103316 0.746013
v 0.601902 0.103316 0.253988
v 0.550593 -0.002321 0.294036
v 0.456787 1.757106 0.574847
v 0.456787 1.650476 0.574847
v 0.253987 0.103316 0.398098
v 0.294036 -0.002321 0.549601
v 0.253987 0.103316 0.601902
v 0.294036 -0.002321 0.450399
v 0.580573 1.501736 0.694522
v 0.474799 1.605627 0.559624
v 0.419427 1.501736 0.694522
v 0.525201 1.605627 0.559624
v 0.694522 1.501736 0.580573
v 0.560841 1.605627 0.524697
v 0.694522 1.501736 0.419427
v 0.560841 1.605627 0.475303
v 0.580573 1.501736 0.305478
v 0.525201 1.605627 0.440376
v 0.419427 1.501736 0.305478
v 0.474799 1.605627 0.440376
v 0.305478 1.501736 0.419427
v 0.439159 1.605627 0.475303
v 0.305478 1.501736 0.580573
v 0.439159 1.605627 0.524697
v 0.746013 1.345899 0.601902
v 0.601902 1.345899 0.746013
v 0.746013 1.345899 0.398098
v 0.601902 1.345899 0.253987
v 0.398098 1.345899 0.253987
v 0.253987 1.345899 0.398098
v 0.253987 1.345899 0.601902
v 0.398098 1.345899 0.746013
v 0.500000 1.657573 0.559624
v 0.560841 1.657573 0.500000
v 0.500000 1.657573 0.440376
v 0.439159 1.657573 0.500000
vn -0.8872 -0.2970 0.3531
vn 0.9580 -0.1285 0.2564
vn 0.9351 -0.3545 -0.0000
vn 0.9580 -0.1285 -0.2564
vn -0.8660 -0.0000 -0.5000
vn 0.8660 -0.0000 -0.5000
vn 0.8660 -0.0000 0.5000
vn -0.8944 -0.2686 -0.3575
vn -0.8944 -0.2686 -0.3577
vn -0.8944 -0.2687 -0.3575
vn -0.2564 -0.1285 0.9580
vn -0.0000 -0.3545 0.9351
vn 0.2564 -0.1285 0.9580
vn 0.2564 -0.1285 -0.9580
vn -0.0000 -0.3545 -0.9351
vn -0.2564 -0.1285 -0.9580
vn -0.8660 -0.0000 0.5000
vn -0.0000 -0.0000 -1.0000
vn -0.0000 -0.0000 1.0000
vn -0.9580 -0.1285 -0.2564
vn -0.9351 -0.3545 -0.0000
vn -0.9580 -0.1285 0.2564
vn 0.3564 -0.2758 0.8927
vn 0.3565 -0.2758 0.8927
vn 0.3035 0.6084 0.7333
vn -0.3130 0.5448 0.7780
vn -0.3035 0.6084 0.7333
vn 0.3130 0.5448 0.7780
vn 0.7337 0.6076 0.3041
vn 0.7758 0.5450 0.3180
vn 0.7337 0.6076 -0.3041
vn 0.7758 0.5450 -0.3180
vn 0.3036 0.6084 -0.7333
vn 0.3130 0.5448 -0.7780
vn -0.3035 0.6084 -0.7333
vn -0.3130 0.5448 -0.7780
vn -0.7337 0.6076 -0.3041
vn -0.7758 0.5450 -0.3180
vn -0.7337 0.6076 0.3041
vn -0.7758 0.5450 0.3180
vn 0.9102 0.1716 0.3770
vn 0.3770 0.1716 0.9102
vn 0.9102 0.1716 -0.3770
vn 0.3770 0.1716 -0.9102
vn -0.3770 0.1716 -0.9102
vn -0.9102 0.1716 -0.3770
vn -0.9102 0.1716 0.3770
vn -0.3770 0.1716 0.9102
vn -0.4143 -0.9101 -0.0000
vn -0.0000 0.2637 0.9646
vn 0.9638 0.2665 -0.0000
vn -0.0000 0.2637 -0.9646
vn -0.9638 0.2665 -0.0000
vn -0.0000 1.0000 -0.0000
vn 0.0341 -0.9988 0.0341
vn 0.8872 -0.2970 0.3531
vn -0.3519 -0.3048 0.8850
vn -0.0000 -0.9101 0.4143
vn -0.0000 -1.0000 -0.0000
vn 0.3519 -0.3048 -0.8850
vn -0.0341 -0.9988 -0.0341
vn 0.4143 -0.9101 -0.0000
vn -0.3519 -0.3048 -0.8850
vn 0.8872 -0.2970 -0.3531
vn 0.0341 -0.9988 -0.0341
vn -0.0000 -0.9101 -0.4143
vt 0.571242 0.433913
vt 0.565402 0.425719
vt 0.559332 0.392753
vt 0.507491 0.433459
vt 0.522873 0.425416
vt 0.528183 0.433459
vt 0.512801 0.425416
vt 0.435965 0.552380
vt 0.458624 0.537360
vt 0.458584 0.552447
vt 0.436005 0.537360
vt 0.435845 0.582520
vt 0.458504 0.567500
vt 0.458464 0.582520
vt 0.435885 0.567433
vt 0.435885 0.597607
vt 0.458504 0.597540
vt 0.476320 0.394791
vt 0.470849 0.425391
vt 0.465051 0.434040
vt 0.476344 0.394772
vt 0.465207 0.433714
vt 0.481138 0.425439
vt 0.486499 0.433714
vt 0.470568 0.425439
vt 0.550040 0.434069
vt 0.565536 0.426019
vt 0.570750 0.434069
vt 0.555254 0.426019
vt 0.458584 0.522273
vt 0.435965 0.522341
vt 0.435965 0.612659
vt 0.458584 0.612592
vt 0.592008 0.434023
vt 0.607226 0.426066
vt 0.612480 0.434023
vt 0.597262 0.426066
vt 0.612633 0.433917
vt 0.601523 0.393958
vt 0.601555 0.393982
vt 0.606989 0.426099
vt 0.486195 0.592502
vt 0.465625 0.612262
vt 0.465392 0.592502
vt 0.485962 0.612262
vt 0.507089 0.592556
vt 0.506251 0.612278
vt 0.528213 0.592633
vt 0.526934 0.612301
vt 0.549576 0.592687
vt 0.549752 0.612318
vt 0.571042 0.592687
vt 0.571725 0.612318
vt 0.592406 0.592633
vt 0.593684 0.612301
vt 0.613529 0.592556
vt 0.614367 0.612278
vt 0.634424 0.592502
vt 0.634657 0.612262
vt 0.507235 0.568887
vt 0.486254 0.568819
vt 0.528362 0.568984
vt 0.549639 0.569052
vt 0.570980 0.569052
vt 0.592257 0.568984
vt 0.613383 0.568887
vt 0.634364 0.568819
vt 0.612877 0.433855
vt 0.634155 0.433787
vt 0.591751 0.433951
vt 0.570770 0.434020
vt 0.549848 0.434020
vt 0.528868 0.433951
vt 0.507741 0.433855
vt 0.486464 0.433787
vt 0.465123 0.433787
vt 0.465333 0.568819
vt 0.522411 0.425314
vt 0.513105 0.425576
vt 0.517572 0.392160
vt 0.506857 0.612079
vt 0.476976 0.643448
vt 0.486170 0.612172
vt 0.516616 0.643288
vt 0.526375 0.612079
vt 0.549675 0.612172
vt 0.561407 0.643448
vt 0.571599 0.612304
vt 0.593991 0.612398
vt 0.604147 0.643607
vt 0.613444 0.612398
vt 0.634549 0.612304
vt 0.640232 0.643448
vt 0.433553 0.495829
vt 0.447246 0.518804
vt 0.433449 0.511088
vt 0.461148 0.511261
vt 0.461252 0.496002
vt 0.447455 0.488286
vt 0.507919 0.433792
vt 0.487352 0.433436
vt 0.498038 0.406193
vt 0.554708 0.426115
vt 0.550116 0.433759
vt 0.507487 0.433640
vt 0.634452 0.433939
vt 0.613558 0.433961
vt 0.623981 0.406063
vt 0.597168 0.425810
vt 0.592036 0.433349
vt 0.591557 0.433852
vt 0.571318 0.434231
vt 0.580995 0.405977
vt 0.528599 0.434074
vt 0.487291 0.433642
vt 0.481095 0.425666
vt 0.549440 0.434106
vt 0.528556 0.434128
vt 0.538974 0.406268
vt 0.486078 0.612172
vt 0.476810 0.643448
vt 0.465442 0.612304
s 1
usemtl garbage001a_01
f 1/1/1 2/2/1 3/3/1
f 4/4/2 5/5/3 6/6/4
f 4/4/2 7/7/3 5/5/3
f 8/8/5 9/9/5 10/10/5
f 8/8/5 11/11/5 9/9/5
f 12/12/6 13/13/6 14/14/6
f 12/12/6 15/15/6 13/13/6
f 16/16/7 14/14/7 17/17/7
f 16/16/7 12/12/7 14/14/7
f 18/18/8 19/19/9 20/20/10
f 18/18/8 3/21/10 19/19/9
f 20/22/11 21/23/12 22/24/13
f 20/22/11 19/25/12 21/23/12
f 23/26/14 2/27/15 1/28/16
f 23/26/14 24/29/15 2/27/15
f 11/11/17 25/30/17 9/9/17
f 11/11/17 26/31/17 25/30/17
f 15/15/18 10/10/18 13/13/18
f 15/15/18 8/8/18 10/10/18
f 26/32/19 17/17/19 25/33/19
f 26/32/19 16/16/19 17/17/19
f 27/34/20 28/35/21 29/36/22
f 27/34/20 30/37/21 28/35/21
f 29/38/23 3/39/24 18/40/24
f 29/38/23 28/41/23 3/39/24
f 31/42/25 32/43/26 33/44/27
f 31/42/25 34/45/28 32/43/26
f 35/46/29 34/45/28 31/42/25
f 35/46/29 36/47/30 34/45/28
f 37/48/31 36/47/30 35/46/29
f 37/48/31 38/49/32 36/47/30
f 39/50/33 38/49/32 37/48/31
f 39/50/33 40/51/34 38/49/32
f 41/52/35 40/51/34 39/50/33
f 41/52/35 42/53/36 40/51/34
f 43/54/37 42/53/36 41/52/35
f 43/54/37 44/55/38 42/53/36
f 45/56/39 44/55/38 43/54/37
f 45/56/39 46/57/40 44/55/38
f 33/58/27 46/57/40 45/56/39
f 33/58/27 32/59/26 46/57/40
f 47/60/41 31/42/25 48/61/42
f 47/60/41 35/46/29 31/42/25
f 49/62/43 35/46/29 47/60/41
f 49/62/43 37/48/31 35/46/29
f 50/63/44 37/48/31 49/62/43
f 50/63/44 39/50/33 37/48/31
f 51/64/45 39/50/33 50/63/44
f 51/64/45 41/52/35 39/50/33
f 52/65/46 41/52/35 51/64/45
f 52/65/46 43/54/37 41/52/35
f 53/66/47 43/54/37 52/65/46
f 53/66/47 45/56/39 43/54/37
f 54/67/48 45/56/39 53/66/47
f 54/67/48 33/58/27 45/56/39
f 29/68/22 20/69/11 54/67/48
f 29/68/22 54/67/48 53/66/47
f 27/70/20 29/68/22 53/66/47
f 27/70/20 53/66/47 52/65/46
f 1/71/16 27/70/20 52/65/46
f 1/71/16 52/65/46 51/64/45
f 23/72/14 1/71/16 51/64/45
f 23/72/14 51/64/45 50/63/44
f 6/73/4 23/72/14 50/63/44
f 6/73/4 50/63/44 49/62/43
f 4/74/2 6/73/4 49/62/43
f 4/74/2 49/62/43 47/60/41
f 22/75/13 4/74/2 47/60/41
f 22/75/13 47/60/41 48/61/42
f 20/76/11 22/75/13 48/61/42
f 20/76/11 48/61/42 54/77/48
f 48/61/42 33/44/27 54/77/48
f 48/61/42 31/42/25 33/44/27
f 5/78/49 7/79/49 3/80/49
f 36/81/30 55/82/50 34/83/28
f 36/81/30 56/84/51 55/82/50
f 38/85/32 56/84/51 36/81/30
f 40/86/34 56/84/51 38/85/32
f 40/86/34 57/87/52 56/84/51
f 42/88/36 57/87/52 40/86/34
f 44/89/38 57/87/52 42/88/36
f 44/89/38 58/90/53 57/87/52
f 46/91/40 58/90/53 44/89/38
f 32/92/26 58/90/53 46/91/40
f 32/92/26 55/93/50 58/90/53
f 14/94/54 25/95/54 17/96/54
f 14/94/54 9/97/54 25/95/54
f 14/94/54 10/98/54 9/97/54
f 14/94/54 13/99/54 10/98/54
f 4/100/55 22/101/55 3/102/55
f 3/3/56 24/103/56 23/104/56
f 3/80/57 7/79/57 4/105/57
f 2/2/58 24/103/58 3/3/58
f 20/106/59 29/107/59 18/108/59
f 3/39/60 30/109/60 27/110/60
f 27/111/61 1/112/61 3/113/61
f 28/41/62 30/109/62 3/39/62
f 6/114/63 5/78/63 3/80/63
f 22/115/64 21/116/64 3/21/64
f 23/117/65 6/118/65 3/119/65
f 21/116/66 19/19/66 3/21/66
f 34/120/28 55/121/50 32/122/26
