# Blender 4.5.3 LTS
# www.blender.org
mtllib garbage.mtl
o garbage_milkcarton001a_reference
v 0.250601 1.357670 0.246532
v 0.243206 1.350809 0.373158
v 0.199542 1.354536 0.298974
v 0.331308 1.350809 0.289157
v 1.019357 0.921353 0.170016
v 0.934188 1.192146 0.840149
v 0.973284 0.921353 0.864934
v 0.973284 0.644881 0.864934
v 0.827074 0.052461 0.912711
v 0.869488 0.052461 0.870297
v 1.019357 0.644881 0.170016
v 0.882612 0.644881 0.033271
v 0.882612 0.921353 0.033271
v 0.977243 1.192146 0.197820
v 0.780871 1.469815 0.728347
v 0.777284 1.469815 0.342155
v 0.854809 1.192146 0.075385
v 0.712757 1.469815 0.274799
v 0.928463 0.052461 0.174563
v 0.892826 0.052461 0.138926
v 0.116824 0.644881 0.008474
v 0.271626 0.921353 0.251147
v 0.325797 1.469815 0.303708
v 0.603844 1.551110 0.449125
v 0.604547 1.551110 0.626284
v 0.712755 1.469815 0.792115
v 0.811754 1.192146 0.962584
v 0.195587 0.829708 0.172274
v 0.117529 0.052461 0.106409
v 0.418970 1.551110 0.452642
v 0.257681 1.469815 0.367476
v 0.836539 0.921353 1.001679
v 0.836539 0.644881 1.001679
v 0.159532 0.052461 0.950040
v 0.151774 0.644881 1.037599
v 0.015029 0.644881 0.900854
v 0.015029 0.921353 0.900854
v 0.151774 0.921353 1.037599
v 0.051092 1.192146 0.879102
v 0.173526 1.192146 1.001537
v 0.318412 1.469815 0.806463
v 0.423688 1.551110 0.631413
v 0.121254 0.052461 0.911762
v 0.603844 1.602843 0.449125
v 0.418970 1.602843 0.452642
v -0.019921 0.644881 0.145219
v 0.072133 0.052461 0.151805
v 0.423688 1.602843 0.631413
v 0.604547 1.602843 0.626284
v 0.408640 1.570960 0.651440
v 0.555338 1.662284 0.689720
v 0.408640 1.662284 0.651440
v 0.555338 1.570960 0.689720
v 0.661839 1.662284 0.581816
v 0.661839 1.570960 0.581816
v 0.621641 1.662284 0.435632
v 0.621641 1.570960 0.435632
v 0.190675 -0.000415 0.791065
v 0.159802 -0.000415 0.274091
v 0.241163 -0.000415 0.174659
v 0.765747 -0.000415 0.197922
v 0.724014 -0.000415 0.844474
v 0.269862 -0.000415 0.876422
v 0.857055 -0.000415 0.289230
v 0.817496 -0.000415 0.750992
v 0.135858 1.092101 0.230123
v 0.129018 0.829708 0.234922
v 0.184106 1.092101 0.180572
v 0.474944 1.662284 0.397352
v 0.474944 1.570960 0.397352
v 0.368443 1.662284 0.505256
v 0.368443 1.570960 0.505256
v 0.197159 0.921353 0.321692
v 0.125373 1.089161 0.112334
v 0.202502 1.422438 0.200572
v 0.249626 1.452814 0.245377
v 0.066393 1.089161 0.171314
v 0.154558 1.422800 0.250587
v 0.200750 1.452788 0.295602
v 0.252833 1.469815 0.740159
v 0.500197 0.000099 0.523369
vn -0.0324 -0.9979 -0.0560
vn 0.9325 0.0901 -0.3498
vn 0.8435 0.3829 0.3766
vn 0.9076 0.0836 0.4115
vn 0.9070 -0.0743 0.4145
vn 0.2997 -0.4023 0.8651
vn 0.8690 -0.3859 0.3096
vn 0.9339 -0.0755 -0.3494
vn 0.3982 -0.0760 -0.9141
vn 0.2068 0.2376 -0.9491
vn 0.8508 0.4222 -0.3128
vn 0.5666 0.7875 0.2424
vn 0.5538 0.8075 -0.2030
vn 0.0282 0.3372 -0.9410
vn 0.1929 0.8114 -0.5518
vn 0.8923 -0.3949 -0.2189
vn 0.2877 -0.3944 -0.8728
vn -0.3560 0.1374 -0.9243
vn -0.4375 0.4059 -0.8024
vn -0.2354 0.1281 -0.9634
vn -0.0642 0.7077 -0.7036
vn 0.2309 0.9411 -0.2468
vn 0.2404 0.9396 0.2435
vn 0.2401 0.7846 0.5716
vn 0.3730 0.3832 0.8450
vn -0.3384 0.7476 -0.5714
vn -0.2425 -0.4007 -0.8835
vn -0.2608 0.9290 -0.2625
vn -0.6942 0.7184 -0.0438
vn 0.4060 0.0811 0.9102
vn 0.4064 -0.0708 0.9109
vn -0.2358 -0.4085 0.8817
vn -0.3575 -0.0714 0.9312
vn -0.9111 -0.0744 0.4055
vn -0.9496 0.2245 0.2187
vn -0.3561 0.0787 0.9311
vn -0.9165 0.3757 0.1373
vn -0.3167 0.4152 0.8528
vn -0.1998 0.8094 0.5523
vn -0.2399 0.9405 0.2406
vn -0.8553 -0.4212 0.3017
vn -0.0190 -0.0000 -0.9998
vn -0.9295 0.1319 -0.3443
vn -0.8708 -0.4304 -0.2376
vn 0.0283 -0.0000 0.9996
vn -0.2525 -0.0000 0.9676
vn 0.2651 -0.0000 0.9642
vn 0.9676 -0.0000 0.2525
vn 0.9642 -0.0000 -0.2651
vn -0.0240 -0.9712 0.2372
vn -0.0443 -0.9739 -0.2226
vn -0.1986 -0.9758 -0.0917
vn 0.2063 -0.9747 -0.0857
vn 0.2590 -0.9638 0.0638
vn -0.2176 -0.9727 0.0804
vn 0.1062 -0.9737 -0.2016
vn 0.1082 -0.9708 0.2141
vn 1.0000 -0.0000 -0.0040
vn -0.9997 -0.0000 0.0264
vn 0.6989 0.0014 0.7152
vn 0.6999 -0.1689 0.6939
vn 0.7000 -0.1689 0.6939
vn 0.6804 -0.3343 0.6522
vn 0.2525 -0.0000 -0.9676
vn -0.2651 -0.0000 -0.9642
vn -0.9676 -0.0000 -0.2525
vn -0.9642 -0.0000 0.2651
vn -0.7508 0.4713 -0.4629
vn -0.5789 0.7385 -0.3458
vn -0.9654 0.1321 -0.2248
vn 0.8220 0.0926 -0.5620
vn 0.7793 0.0468 -0.6249
vn 0.7793 0.0468 -0.6250
vn 0.6564 0.0227 -0.7541
vn 0.7103 -0.0005 -0.7039
vn 0.6164 0.0338 -0.7867
vn -0.5928 0.0539 0.8036
vn -0.6406 0.0239 0.7675
vn -0.6972 0.0133 0.7168
vn -0.7433 0.0362 0.6679
vn -0.7699 0.0581 0.6355
vn -0.6866 0.2553 -0.6807
vn -0.6866 0.2552 -0.6808
vn -0.5288 0.6720 -0.5185
vn -0.5288 0.6720 -0.5184
vn -0.2157 0.9528 -0.2136
vn -0.5452 0.8118 0.2094
vn -0.0000 1.0000 -0.0000
vn 0.2070 -0.9072 -0.3663
vn -0.3229 -0.9292 0.1796
vn 0.0146 -0.9999 -0.0072
vn 0.3077 -0.9336 0.1839
vn -0.1653 -0.9251 -0.3418
vn -0.1539 -0.9396 0.3056
vn 0.3810 -0.9030 -0.1984
vn -0.3590 -0.9169 -0.1741
vn 0.2348 -0.9063 0.3513
vt 0.596743 0.331116
vt 0.588621 0.339952
vt 0.588371 0.330792
vt 0.597016 0.340062
vt 0.486003 0.324086
vt 0.436046 0.347529
vt 0.436094 0.323269
vt 0.435919 0.298111
vt 0.426796 0.243566
vt 0.430951 0.243591
vt 0.484416 0.298928
vt 0.497023 0.297313
vt 0.498695 0.322471
vt 0.487750 0.348622
vt 0.436283 0.378281
vt 0.491184 0.377313
vt 0.500162 0.347176
vt 0.502904 0.376535
vt 0.483802 0.244483
vt 0.487372 0.244062
vt 0.551945 0.296282
vt 0.554870 0.323762
vt 0.552889 0.363423
vt 0.554796 0.374300
vt 0.504892 0.384237
vt 0.427260 0.384013
vt 0.423474 0.378217
vt 0.422283 0.347458
vt 0.555351 0.314508
vt 0.555951 0.242929
vt 0.561640 0.383111
vt 0.566351 0.374236
vt 0.422571 0.323190
vt 0.422953 0.298032
vt 0.376405 0.242850
vt 0.375369 0.297202
vt 0.362738 0.295587
vt 0.361081 0.320744
vt 0.373748 0.322359
vt 0.359735 0.345487
vt 0.371887 0.346933
vt 0.368901 0.375854
vt 0.356720 0.382921
vt 0.372538 0.242398
vt 0.356652 0.382841
vt 0.305662 0.387478
vt 0.305662 0.381913
vt 0.356620 0.388406
vt 0.337642 0.239808
vt 0.349684 0.284240
vt 0.330967 0.284272
vt 0.343856 0.239797
vt 0.504686 0.384057
vt 0.427200 0.389734
vt 0.427199 0.384169
vt 0.504717 0.389622
vt 0.302351 0.242648
vt 0.293476 0.253521
vt 0.293509 0.242648
vt 0.302319 0.253544
vt 0.293412 0.264405
vt 0.302255 0.264428
vt 0.293381 0.275301
vt 0.302223 0.275301
vt 0.307189 0.241700
vt 0.362948 0.234611
vt 0.372435 0.242231
vt 0.315745 0.233876
vt 0.487817 0.244114
vt 0.544793 0.235816
vt 0.555884 0.243023
vt 0.498732 0.235990
vt 0.376674 0.242733
vt 0.419943 0.237633
vt 0.426163 0.243389
vt 0.383903 0.237370
vt 0.431511 0.243341
vt 0.475755 0.238866
vt 0.484118 0.244499
vt 0.439467 0.237681
vt 0.561502 0.382728
vt 0.561503 0.388293
vt 0.597197 0.264231
vt 0.588838 0.287927
vt 0.586747 0.264129
vt 0.596748 0.287907
vt 0.293413 0.286198
vt 0.302256 0.286174
vt 0.293477 0.297082
vt 0.302319 0.297058
vt 0.293509 0.307954
vt 0.302351 0.307955
vt 0.310578 0.322494
vt 0.299695 0.313262
vt 0.307266 0.313248
vt 0.302083 0.322496
vt 0.301586 0.361768
vt 0.311667 0.361782
vt 0.568709 0.243850
vt 0.555323 0.287950
vt 0.557585 0.264195
vt 0.562049 0.288178
vt 0.562375 0.328348
vt 0.567988 0.328155
vt 0.569410 0.361755
vt 0.562340 0.370649
vt 0.569189 0.367324
vt 0.586568 0.264250
vt 0.580707 0.288003
vt 0.574889 0.243707
vt 0.588859 0.288132
vt 0.576599 0.328322
vt 0.583184 0.328161
vt 0.576342 0.361549
vt 0.576026 0.367519
vt 0.582018 0.371154
vt 0.580703 0.287968
vt 0.568533 0.328261
vt 0.561986 0.288000
vt 0.576606 0.328247
vt 0.569330 0.361486
vt 0.576034 0.361581
vt 0.569191 0.367374
vt 0.575973 0.367410
vt 0.567999 0.373762
vt 0.577024 0.373584
vt 0.310529 0.294980
vt 0.310418 0.322473
vt 0.307328 0.313225
vt 0.362751 0.295587
vt 0.307020 0.241679
vt 0.372551 0.242398
vt 0.361094 0.320744
vt 0.311873 0.362126
vt 0.359748 0.345487
vt 0.310105 0.373013
vt 0.357719 0.375076
vt 0.305394 0.381888
vt 0.356733 0.382921
vt 0.368914 0.375854
vt 0.371900 0.346933
vt 0.290772 0.367042
vt 0.298373 0.380407
vt 0.290714 0.375918
vt 0.306089 0.376019
vt 0.306147 0.367142
vt 0.298489 0.362654
vt 0.285278 0.246768
vt 0.289029 0.250565
vt 0.254128 0.282106
vt 0.283258 0.260746
vt 0.281052 0.304350
vt 0.285923 0.315011
vt 0.282941 0.317956
vt 0.273412 0.311895
vt 0.235036 0.308371
vt 0.225120 0.312697
vt 0.221615 0.309149
vt 0.227312 0.300550
vt 0.224891 0.262774
vt 0.218858 0.253628
vt 0.222061 0.250464
vt 0.232029 0.256233
vt 0.275032 0.253930
s 1
usemtl garbage001a_01
f 1/1/1 2/2/1 3/3/1
f 1/1/1 4/4/1 2/2/1
f 5/5/2 6/6/3 7/7/4
f 8/8/5 9/9/6 10/10/7
f 10/10/7 11/11/8 8/8/5
f 11/11/8 7/7/4 8/8/5
f 11/11/8 5/5/2 7/7/4
f 12/12/9 5/5/2 11/11/8
f 12/12/9 13/13/10 5/5/2
f 13/13/10 14/14/11 5/5/2
f 5/5/2 14/14/11 6/6/3
f 14/14/11 15/15/12 6/6/3
f 14/14/11 16/16/13 15/15/12
f 17/17/14 16/16/13 14/14/11
f 17/17/14 18/18/15 16/16/13
f 13/13/10 17/17/14 14/14/11
f 10/10/7 19/19/16 11/11/8
f 12/12/9 11/11/8 19/19/16
f 12/12/9 19/19/16 20/20/17
f 20/20/17 21/21/18 12/12/9
f 21/21/18 13/13/10 12/12/9
f 21/21/18 22/22/19 13/13/10
f 22/22/19 17/17/14 13/13/10
f 4/23/20 17/17/14 22/22/19
f 23/24/21 17/17/14 4/23/20
f 18/18/15 17/17/14 23/24/21
f 23/24/21 24/25/22 18/18/15
f 18/18/15 24/25/22 16/16/13
f 16/16/13 24/25/22 25/26/23
f 16/16/13 25/26/23 15/15/12
f 15/15/12 25/26/23 26/27/24
f 6/6/3 15/15/12 26/27/24
f 6/6/3 26/27/24 27/28/25
f 7/7/4 6/6/3 27/28/25
f 21/21/18 28/29/26 22/22/19
f 20/20/17 29/30/27 21/21/18
f 23/24/21 30/31/28 24/25/22
f 31/32/29 30/31/28 23/24/21
f 7/7/4 27/28/25 32/33/30
f 8/8/5 7/7/4 32/33/30
f 8/8/5 32/33/30 33/34/31
f 8/8/5 33/34/31 9/9/6
f 33/34/31 34/35/32 9/9/6
f 33/34/31 35/36/33 34/35/32
f 36/37/34 34/35/32 35/36/33
f 35/36/33 37/38/35 36/37/34
f 35/36/33 38/39/36 37/38/35
f 38/39/36 39/40/37 37/38/35
f 38/39/36 40/41/38 39/40/37
f 32/33/30 40/41/38 38/39/36
f 32/33/30 27/28/25 40/41/38
f 27/28/25 41/42/39 40/41/38
f 27/28/25 26/27/24 41/42/39
f 26/27/24 42/43/40 41/42/39
f 26/27/24 25/26/23 42/43/40
f 33/34/31 38/39/36 35/36/33
f 33/34/31 32/33/30 38/39/36
f 36/37/34 43/44/41 34/35/32
f 30/45/42 44/46/42 24/47/42
f 30/45/42 45/48/42 44/46/42
f 29/49/27 46/50/43 21/51/18
f 29/49/27 47/52/44 46/50/43
f 25/53/45 48/54/45 42/55/45
f 25/53/45 49/56/45 48/54/45
f 50/57/46 51/58/47 52/59/46
f 50/57/46 53/60/47 51/58/47
f 53/60/47 54/61/48 51/58/47
f 53/60/47 55/62/48 54/61/48
f 55/62/48 56/63/49 54/61/48
f 55/62/48 57/64/49 56/63/49
f 47/65/44 58/66/50 43/67/41
f 47/65/44 59/68/51 58/66/50
f 20/69/17 60/70/52 29/71/27
f 20/69/17 61/72/53 60/70/52
f 34/73/32 62/74/54 9/75/6
f 34/73/32 63/76/55 62/74/54
f 10/77/7 64/78/56 19/79/16
f 10/77/7 65/80/57 64/78/56
f 24/81/58 49/56/58 25/53/58
f 24/81/58 44/82/58 49/56/58
f 42/55/59 45/48/59 30/45/59
f 42/55/59 48/54/59 45/48/59
f 28/83/60 66/84/61 67/85/60
f 28/83/60 68/86/62 66/84/61
f 68/86/62 3/3/63 66/84/61
f 68/86/62 1/1/63 3/3/63
f 57/64/64 69/87/65 56/63/64
f 57/64/64 70/88/65 69/87/65
f 70/88/65 71/89/66 69/87/65
f 70/88/65 72/90/66 71/89/66
f 72/90/66 52/91/67 71/89/66
f 72/90/66 50/92/67 52/91/67
f 73/93/68 28/94/26 67/95/69
f 73/93/68 22/96/19 28/94/26
f 73/93/68 4/97/20 22/96/19
f 73/93/68 2/98/70 4/97/20
f 21/99/71 68/100/72 28/101/71
f 21/99/71 74/102/73 68/100/72
f 74/102/73 1/103/74 68/100/72
f 74/102/73 75/104/75 1/103/74
f 75/104/75 76/105/76 1/103/74
f 76/105/76 4/106/20 1/103/74
f 76/105/76 23/107/21 4/106/20
f 67/108/77 77/109/78 46/110/77
f 67/108/77 66/111/78 77/109/78
f 66/111/78 78/112/79 77/109/78
f 66/111/78 3/113/80 78/112/79
f 3/113/80 79/114/81 78/112/79
f 3/113/80 31/115/29 79/114/81
f 3/113/80 2/116/70 31/115/29
f 46/117/43 74/118/82 21/119/18
f 46/117/43 77/120/83 74/118/82
f 77/120/83 75/121/84 74/118/82
f 77/120/83 78/122/85 75/121/84
f 78/122/85 76/123/86 75/121/84
f 78/122/85 79/124/86 76/123/86
f 79/124/86 23/125/21 76/123/86
f 79/124/86 31/126/29 23/125/21
f 46/127/43 73/128/68 67/129/69
f 36/130/34 47/131/44 43/132/41
f 36/130/34 46/127/43 47/131/44
f 36/130/34 37/133/35 46/127/43
f 46/127/43 37/133/35 73/128/68
f 37/133/35 2/134/70 73/128/68
f 37/133/35 39/135/37 2/134/70
f 2/134/70 39/135/37 31/136/29
f 31/136/29 39/135/37 80/137/87
f 80/137/87 30/138/28 31/136/29
f 80/137/87 42/139/40 30/138/28
f 41/140/39 42/139/40 80/137/87
f 40/141/38 41/140/39 80/137/87
f 40/141/38 80/137/87 39/135/37
f 54/142/88 52/143/88 51/144/88
f 54/142/88 71/145/88 52/143/88
f 54/142/88 69/146/88 71/145/88
f 54/142/88 56/147/88 69/146/88
f 47/148/89 29/149/90 81/150/91
f 29/149/90 60/151/52 81/150/91
f 60/151/52 61/152/53 81/150/91
f 81/150/91 61/152/53 20/153/92
f 20/153/92 19/154/93 81/150/91
f 19/154/93 64/155/56 81/150/91
f 64/155/56 65/156/57 81/150/91
f 81/150/91 65/156/57 10/157/94
f 9/158/95 81/150/91 10/157/94
f 9/158/95 62/159/54 81/150/91
f 63/160/55 81/150/91 62/159/54
f 81/150/91 63/160/55 34/161/96
f 43/162/97 81/150/91 34/161/96
f 81/150/91 43/162/97 58/163/50
f 58/163/50 59/164/51 81/150/91
f 81/150/91 59/164/51 47/148/89
