# Blender 4.5.3 LTS
# www.blender.org
mtllib garbage.mtl
o garbage_takeoutcarton001a_reference
v 0.865131 0.798555 0.153127
v 0.761111 0.050854 0.779369
v 0.865131 0.798555 0.883389
v 0.761111 0.050854 0.257147
v 0.676626 1.140122 0.638797
v 0.885291 0.798555 0.903550
v 0.114709 0.798555 0.903550
v 0.371977 1.140122 0.638797
v 0.134869 0.777245 0.892419
v 0.238889 0.050854 0.779369
v 0.773288 0.002881 0.244970
v 0.114709 0.798555 0.132967
v 0.885291 0.798555 0.132967
v 0.226712 0.002881 0.244970
v 0.238889 0.050854 0.257147
v 0.226712 0.002881 0.791546
v 0.773288 0.002881 0.791546
v 0.537962 0.705025 0.222569
v 0.537962 0.705025 0.813947
v 0.667464 1.141594 0.096450
v 0.376991 1.141594 0.096450
v 0.880620 1.212042 0.727781
v 0.880620 1.212042 0.319387
v 0.134869 0.777245 0.146355
vn -0.9554 0.1692 -0.2421
vn -0.9905 0.1378 -0.0000
vn -0.9561 0.1634 0.2432
vn 0.2623 -0.2057 -0.9428
vn 0.3900 -0.3822 -0.8377
vn 0.7024 -0.1153 -0.7024
vn -0.5993 -0.1570 -0.7850
vn -0.3198 -0.3951 -0.8612
vn -0.2218 -0.2161 -0.9508
vn -0.0096 0.1457 -0.9893
vn -0.0000 -0.1394 -0.9902
vn -0.0000 -0.1226 -0.9925
vn -0.0000 1.0000 -0.0000
vn -0.9902 -0.1394 -0.0000
vn 0.9902 -0.1394 -0.0000
vn 0.9979 -0.0642 -0.0000
vn -0.0000 -1.0000 -0.0000
vn -0.0000 -0.1394 0.9902
vn -0.0000 0.2568 0.9665
vn -0.0000 0.2569 0.9664
vn 0.2158 0.9764 -0.0000
vn -0.0000 -0.1059 -0.9944
vn 0.9999 0.0113 -0.0000
vn -0.0000 0.6126 0.7904
vn 0.9899 0.1418 -0.0000
vn -0.9120 0.1820 -0.3677
vn -0.6752 0.2968 -0.6752
vn -0.9131 0.1732 0.3692
vn -0.6787 0.2808 0.6787
vn 0.6263 0.4643 0.6263
vn 0.3361 0.3346 0.8804
vn 0.2190 0.2727 0.9368
vn -0.1454 0.2323 0.9617
vn -0.0995 0.2033 0.9741
vn -0.0078 0.1442 0.9895
vn -0.0995 0.2033 0.9740
vn -0.1455 0.2323 0.9617
vn -0.2775 0.3090 0.9097
vt 0.860918 0.075679
vt 0.895598 0.104448
vt 0.860918 0.109226
vt 0.895598 0.080458
vt 0.860897 0.111213
vt 0.841502 0.120324
vt 0.861093 0.110245
vt 0.859912 0.146330
vt 0.841578 0.134590
vt 0.860772 0.145399
vt 0.892866 0.140659
vt 0.892737 0.116205
vt 0.774116 0.074184
vt 0.822195 0.037894
vt 0.821993 0.074333
vt 0.774260 0.037748
vt 0.868442 0.032736
vt 0.844066 0.008360
vt 0.868442 0.008360
vt 0.844066 0.032736
vt 0.774260 0.001602
vt 0.822195 0.001455
vt 0.774116 0.110920
vt 0.821993 0.110772
vt 0.869357 0.038352
vt 0.898956 0.008751
vt 0.898956 0.038352
vt 0.869357 0.008751
vt 0.774116 0.110981
vt 0.822195 0.147271
vt 0.774260 0.147418
vt 0.821993 0.110833
vt 0.822142 0.001470
vt 0.842437 0.033354
vt 0.822142 0.037549
vt 0.842437 0.005665
vt 0.822019 0.038072
vt 0.841109 0.064249
vt 0.822019 0.074565
vt 0.841109 0.050493
vt 0.821778 0.074052
vt 0.841698 0.102707
vt 0.821778 0.111175
vt 0.841698 0.083033
vt 0.822120 0.110852
vt 0.841565 0.134644
vt 0.822120 0.146568
vt 0.841565 0.120524
vt 0.846654 0.045036
vt 0.837420 0.036719
vt 0.846841 0.035485
vt 0.837288 0.043404
vt 0.861017 0.075277
vt 0.841820 0.083137
vt 0.860800 0.074325
vt 0.861027 0.109796
vt 0.841826 0.102441
vt 0.860811 0.110750
vt 0.860799 0.073191
vt 0.841096 0.064180
vt 0.861052 0.072254
vt 0.841078 0.050551
vt 0.860969 0.040660
vt 0.895098 0.068997
vt 0.895067 0.044494
vt 0.859833 0.039811
s 1
usemtl garbage001a_01
f 1/1/1 2/2/2 3/3/3
f 1/1/1 4/4/2 2/2/2
f 3/5/4 5/6/5 6/7/6
f 7/8/7 8/9/8 9/10/9
f 9/10/9 8/9/8 5/6/5
f 9/10/9 5/6/5 3/5/4
f 3/5/4 10/11/10 9/10/9
f 3/5/4 2/12/10 10/11/10
f 11/13/11 12/14/12 13/15/12
f 11/13/11 14/16/11 12/14/12
f 2/17/13 15/18/13 10/19/13
f 2/17/13 4/20/13 15/18/13
f 16/21/14 12/14/14 14/16/14
f 16/21/14 7/22/14 12/14/14
f 17/23/15 13/15/16 6/24/16
f 17/23/15 11/13/15 13/15/16
f 17/25/17 14/26/17 11/27/17
f 17/25/17 16/28/17 14/26/17
f 17/29/18 7/30/19 16/31/18
f 17/29/18 6/32/20 7/30/19
f 7/33/21 18/34/21 12/35/21
f 7/33/21 19/36/21 18/34/21
f 12/37/12 20/38/22 13/39/12
f 12/37/12 21/40/22 20/38/22
f 13/41/16 22/42/23 6/43/16
f 13/41/16 23/44/23 22/42/23
f 6/45/20 8/46/24 7/47/19
f 6/45/20 5/48/24 8/46/24
f 9/49/25 15/50/25 24/51/25
f 9/49/25 10/52/25 15/50/25
f 1/53/1 23/54/26 13/55/27
f 3/56/3 23/54/26 1/53/1
f 3/56/3 22/57/28 23/54/26
f 6/58/29 22/57/28 3/56/3
f 13/59/30 20/60/31 1/61/32
f 1/61/32 20/60/31 21/62/33
f 1/61/32 21/62/33 24/63/34
f 24/63/34 4/64/35 1/61/32
f 24/63/34 15/65/35 4/64/35
f 24/63/36 21/62/37 12/66/38
