# Blender 4.5.3 LTS
# www.blender.org
mtllib garbage.mtl
o garbage_milkcarton002a_reference
v 0.764127 1.203150 0.260767
v 0.689988 1.247459 0.500000
v 0.764127 1.203150 0.739233
v 0.235873 1.328976 0.488802
v 0.764127 1.328976 0.488802
v 0.235873 1.203150 0.260767
v 0.235873 1.328976 0.511198
v 0.764127 1.328976 0.511198
v 0.235873 1.203150 0.739233
v 0.234705 1.408794 0.511599
v 0.771101 1.397815 0.485790
v 0.235873 -0.000530 0.739233
v 0.764127 -0.000530 0.739233
v 0.272013 0.601310 0.516458
v 0.235873 -0.000530 0.572260
v 0.260688 0.601310 0.295865
v 0.250348 -0.000530 0.266961
v 0.764127 0.601310 0.260767
v 0.590988 0.601310 0.285542
v 0.590988 -0.000530 0.262832
v 0.764127 -0.000530 0.260767
v 0.310012 1.247459 0.500000
vn 0.5130 0.8584 -0.0000
vn -0.0000 0.8756 -0.4831
vn -0.0000 0.8756 0.4831
vn 0.0256 0.1649 0.9860
vn 0.0256 0.1648 0.9860
vn -0.0227 0.1328 -0.9909
vn -0.0226 0.1327 -0.9909
vn -0.0000 -0.0000 1.0000
vn 0.9105 -0.3797 0.1639
vn 0.7242 -0.6162 0.3096
vn 0.7242 -0.6161 0.3096
vn 0.9949 -0.1008 -0.0000
vn -0.9930 0.0163 -0.1171
vn -0.9998 -0.0109 -0.0180
vn -0.9977 0.0274 -0.0617
vn -0.9980 -0.0219 -0.0587
vn -0.9985 -0.0491 0.0256
vn -0.9997 0.0001 0.0227
vn -0.9992 0.0385 -0.0060
vn -0.0770 -0.0242 -0.9967
vn -0.1095 0.0094 -0.9939
vn -0.0633 0.0034 -0.9980
vn -0.0120 -0.0482 -0.9988
vn -0.0168 -0.0026 -0.9999
vn -0.0215 0.0430 -0.9988
vn -0.0494 0.0309 -0.9983
vn -0.0773 0.0188 -0.9968
vn -0.5130 0.8584 -0.0000
vn -0.0000 -1.0000 -0.0000
vn -0.7194 -0.6082 -0.3356
vn 1.0000 -0.0000 -0.0000
vn 0.7194 -0.6082 -0.3356
vn -0.9261 -0.3388 0.1663
vn -0.7242 -0.6162 0.3096
vn -0.9999 -0.0146 -0.0000
vt 0.583175 0.164823
vt 0.612317 0.176810
vt 0.648725 0.164466
vt 0.583253 0.164938
vt 0.523162 0.183228
vt 0.580114 0.183228
vt 0.523162 0.164938
vt 0.706500 0.183637
vt 0.648941 0.164537
vt 0.648941 0.183637
vt 0.706500 0.164537
vt 0.706500 0.192086
vt 0.648941 0.192086
vt 0.580114 0.191466
vt 0.523162 0.191466
vt 0.707052 0.001450
vt 0.648706 0.164566
vt 0.706677 0.164566
vt 0.648331 0.001450
vt 0.610333 0.184080
vt 0.612422 0.184113
vt 0.611378 0.191404
vt 0.739205 0.083149
vt 0.739393 0.001591
vt 0.771359 0.164849
vt 0.771547 0.083291
vt 0.771734 0.001733
vt 0.582940 0.165155
vt 0.582940 0.083168
vt 0.560514 0.083175
vt 0.523533 0.165141
vt 0.523957 0.083171
vt 0.524047 0.001694
vt 0.560660 0.001702
vt 0.582940 0.001705
vt 0.706706 0.164517
vt 0.737435 0.177508
vt 0.771421 0.164670
vt 0.573967 0.194168
vt 0.523283 0.228783
vt 0.573967 0.228783
vt 0.523283 0.211476
vt 0.523283 0.194168
vt 0.548625 0.194168
vt 0.737473 0.182817
vt 0.583248 0.164849
vt 0.583061 0.083291
vt 0.582873 0.001733
vt 0.739653 0.182783
vt 0.738563 0.190427
s 1
usemtl garbage001a_01
f 1/1/1 2/2/1 3/3/1
f 1/4/2 4/5/2 5/6/2
f 1/4/2 6/7/2 4/5/2
f 7/8/3 3/9/3 8/10/3
f 7/8/3 9/11/3 3/9/3
f 8/10/4 10/12/5 7/8/5
f 8/10/4 11/13/4 10/12/5
f 4/5/6 11/14/7 5/6/7
f 4/5/6 10/15/6 11/14/7
f 12/16/8 3/17/8 9/18/8
f 12/16/8 13/19/8 3/17/8
f 5/20/9 2/2/10 1/1/11
f 5/20/9 8/21/9 2/2/10
f 5/20/9 11/22/12 8/21/9
f 12/16/13 14/23/14 15/24/15
f 12/16/13 9/18/16 14/23/14
f 6/25/17 14/23/14 9/18/16
f 6/25/17 16/26/18 14/23/14
f 16/26/18 15/24/15 14/23/14
f 16/26/18 17/27/19 15/24/15
f 1/28/20 18/29/21 19/30/22
f 6/31/23 1/28/20 19/30/22
f 6/31/23 19/30/22 16/32/24
f 17/33/25 16/32/24 19/30/22
f 17/33/25 19/30/22 20/34/26
f 18/29/21 20/34/26 19/30/22
f 18/29/21 21/35/27 20/34/26
f 9/36/28 22/37/28 6/38/28
f 12/39/29 21/40/29 13/41/29
f 12/39/29 20/42/29 21/40/29
f 12/39/29 17/43/29 20/42/29
f 12/39/29 15/44/29 17/43/29
f 7/45/30 22/37/30 9/36/30
f 13/19/31 1/46/31 3/17/31
f 13/19/31 18/47/31 1/46/31
f 13/19/31 21/48/31 18/47/31
f 8/21/32 3/3/32 2/2/32
f 7/45/33 6/38/34 22/37/34
f 7/45/33 4/49/33 6/38/34
f 7/45/33 10/50/35 4/49/33
