# Blender 4.5.3 LTS
# www.blender.org
mtllib tin_can.mtl
o garbage_metalcan001a_reference
v 0.507846 0.835304 0.772926
v 0.507846 0.835681 0.753730
v 0.313594 0.848340 0.692564
v 0.702098 0.825433 0.692115
v 0.688546 0.826499 0.678557
v 0.782560 0.824510 0.497469
v 0.763394 0.825640 0.497491
v 0.702098 0.833074 0.303010
v 0.688546 0.833607 0.316599
v 0.507846 0.846110 0.222648
v 0.246623 -0.000032 0.507384
v 0.502615 -0.000032 0.763376
v 0.321601 -0.000032 0.688398
v 0.683629 -0.000032 0.688398
v 0.758608 -0.000032 0.507384
v 0.683629 -0.000032 0.326370
v 0.502615 -0.000032 0.251392
v 0.321601 -0.000032 0.326370
v 0.308025 0.043762 0.312794
v 0.217440 0.590869 0.492881
v 0.297902 0.589946 0.298235
v 0.227424 0.043762 0.507384
v 0.297902 0.582973 0.653334
v 0.308025 0.043762 0.701974
v 0.686406 0.567039 0.297785
v 0.766869 0.558474 0.492245
v 0.492154 0.580075 0.217424
v 0.313594 0.855981 0.303460
v 0.233131 0.856905 0.498105
v 0.502615 0.043762 0.232192
v 0.697205 0.043762 0.312794
v 0.777807 0.043762 0.507384
v 0.697205 0.043762 0.701974
v 0.686406 0.560066 0.652884
v 0.502615 0.043762 0.782576
v 0.492154 0.569936 0.733695
v 0.683629 0.110799 0.688398
v 0.321601 0.110799 0.688398
v 0.502615 0.110799 0.763376
v 0.246623 0.110799 0.507384
v 0.321601 0.110799 0.326370
v 0.502615 0.110799 0.251392
v 0.683629 0.110799 0.326370
v 0.758608 0.110799 0.507384
v 0.747702 0.559604 0.492267
v 0.672854 0.561131 0.639326
v 0.492154 0.570313 0.714499
v 0.311454 0.582440 0.639745
v 0.480571 0.908277 0.758173
v 0.658245 0.954641 0.682114
v 0.480571 0.908277 0.498490
v 0.731840 0.973845 0.498490
v 0.658245 0.954641 0.314866
v 0.480571 0.908277 0.238807
v 0.302896 0.861914 0.314866
v 0.229301 0.842710 0.498490
v 0.306732 0.861914 0.680196
vn 0.0589 0.9981 0.0196
vn -0.0000 -1.0000 -0.0000
vn -0.7075 -0.0321 -0.7060
vn -0.9997 0.0167 0.0172
vn -0.7074 0.0117 -0.7067
vn -0.9998 -0.0109 0.0169
vn -0.6965 -0.0025 0.7176
vn -0.6940 0.0453 0.7186
vn 0.7065 -0.0166 -0.7076
vn 0.9972 -0.0735 0.0152
vn 0.7059 -0.0277 -0.7078
vn -0.0005 -0.0039 -1.0000
vn -0.0000 0.0196 -0.9998
vn -0.7059 0.0555 -0.7061
vn -0.9989 0.0442 0.0175
vn -0.6974 -0.0502 0.7149
vn -0.0011 -0.0274 -0.9996
vn 0.7070 -0.0054 -0.7072
vn 0.9994 0.0289 0.0163
vn 0.9994 0.0289 0.0164
vn 0.6950 0.0747 0.7151
vn 0.0025 0.0926 0.9957
vn -0.0025 -0.0268 0.9996
vn -0.0074 -0.1458 0.9893
vn 0.6883 -0.1319 0.7133
vn -0.0000 1.0000 -0.0000
vn -0.9996 0.0131 -0.0265
vn -0.9976 0.0592 -0.0354
vn -0.7346 0.0259 0.6781
vn -0.6947 0.0233 -0.7190
vn -0.6873 0.1319 -0.7143
vn -0.0086 0.0300 -0.9995
vn -0.0144 0.1640 -0.9864
vn 0.6898 0.0191 -0.7238
vn 0.6698 0.0959 -0.7363
vn -0.0209 0.0327 0.9992
vn 0.7076 0.0295 0.7060
vn 0.9991 0.0277 -0.0318
vn 0.9873 0.0111 -0.1584
vn 0.7054 -0.0584 -0.7064
vn -0.0027 -0.1059 -0.9944
vn -0.6937 -0.0855 -0.7152
vn -0.9993 -0.0333 -0.0174
vn -0.8126 0.0137 0.5827
vn -0.2551 0.9669 -0.0000
vn -0.2525 0.9676 -0.0000
vn -0.2531 0.9674 0.0007
vn -0.2525 0.9676 0.0026
vn -0.2551 0.9669 0.0027
vn -0.9159 -0.4015 -0.0000
vn -0.6476 -0.4015 0.6476
vn -0.6476 -0.4015 -0.6476
vn -0.0000 -0.4015 -0.9159
vn 0.6476 -0.4015 -0.6476
vn 0.9159 -0.4015 -0.0000
vn 0.6476 -0.4015 0.6476
vn -0.0000 -0.4015 0.9159
vt 0.027541 0.514894
vt 0.027700 0.517373
vt 0.005862 0.515849
vt 0.049220 0.513940
vt 0.048768 0.517160
vt 0.071125 0.513853
vt 0.070587 0.517165
vt 0.092500 0.514443
vt 0.090978 0.517144
vt 0.113462 0.515598
vt 0.131115 0.550450
vt 0.122099 0.522530
vt 0.132383 0.534601
vt 0.106289 0.521306
vt 0.094213 0.531647
vt 0.092945 0.547495
vt 0.103228 0.559566
vt 0.119039 0.560790
vt 0.135287 0.408376
vt 0.155548 0.481285
vt 0.135181 0.481098
vt 0.157450 0.408440
vt 0.173605 0.480582
vt 0.178879 0.408828
vt 0.093461 0.478828
vt 0.071035 0.513553
vt 0.071359 0.478076
vt 0.092416 0.514306
vt 0.114655 0.480080
vt 0.113532 0.515558
vt 0.134589 0.516575
vt 0.155805 0.516763
vt 0.177281 0.516010
vt 0.112826 0.408674
vt 0.090739 0.409159
vt 0.069397 0.409548
vt 0.048689 0.409612
vt 0.051449 0.478312
vt 0.028205 0.409314
vt 0.026175 0.479330
vt 0.007447 0.408828
vt 0.002173 0.480582
vt 0.005850 0.516010
vt 0.027558 0.514758
vt 0.049359 0.513740
vt 0.064523 0.547663
vt 0.085579 0.547663
vt 0.075051 0.552023
vt 0.089940 0.537135
vt 0.085579 0.526606
vt 0.075051 0.522245
vt 0.064523 0.526606
vt 0.060162 0.537135
vt 0.045862 0.539120
vt 0.045769 0.550535
vt 0.052094 0.550809
vt 0.040042 0.539241
vt 0.039465 0.550640
vt 0.032541 0.539663
vt 0.033079 0.551062
vt 0.025231 0.540155
vt 0.026503 0.551582
vt 0.006532 0.519777
vt 0.006393 0.551310
vt 0.013026 0.551764
vt 0.013528 0.519805
vt 0.019783 0.551876
vt 0.020306 0.519873
vt 0.026734 0.519940
vt 0.032902 0.519969
vt 0.039006 0.519940
vt 0.045254 0.519873
vt 0.051814 0.519805
vt 0.058567 0.551310
vt 0.058706 0.519777
vt 0.203104 0.553901
vt 0.193163 0.578075
vt 0.168954 0.553988
vt 0.169041 0.588139
vt 0.144868 0.578198
vt 0.134804 0.554075
vt 0.144745 0.529902
vt 0.168867 0.519838
vt 0.192789 0.530268
vt 0.179045 0.403006
vt 0.157586 0.402644
vt 0.135302 0.402585
vt 0.112706 0.402862
vt 0.090566 0.403314
vt 0.069277 0.403675
vt 0.048681 0.403735
vt 0.028309 0.403457
vt 0.007614 0.403006
s 1
usemtl garbage001a_01
f 1/1/1 2/2/1 3/3/1
f 4/4/1 2/2/1 1/1/1
f 4/4/1 5/5/1 2/2/1
f 6/6/1 5/5/1 4/4/1
f 6/6/1 7/7/1 5/5/1
f 8/8/1 7/7/1 6/6/1
f 8/8/1 9/9/1 7/7/1
f 10/10/1 9/9/1 8/8/1
f 11/11/2 12/12/2 13/13/2
f 11/11/2 14/14/2 12/12/2
f 11/11/2 15/15/2 14/14/2
f 11/11/2 16/16/2 15/15/2
f 11/11/2 17/17/2 16/16/2
f 11/11/2 18/18/2 17/17/2
f 19/19/3 20/20/4 21/21/5
f 19/19/3 22/22/6 20/20/4
f 22/22/6 23/23/7 20/20/4
f 22/22/6 24/24/8 23/23/7
f 25/25/9 6/26/10 26/27/10
f 25/25/9 8/28/11 6/26/10
f 27/29/12 8/28/11 25/25/9
f 27/29/12 10/30/13 8/28/11
f 21/21/5 10/30/13 27/29/12
f 21/21/5 28/31/14 10/30/13
f 20/20/4 28/31/14 21/21/5
f 20/20/4 29/32/15 28/31/14
f 23/23/7 29/32/15 20/20/4
f 23/23/7 3/33/16 29/32/15
f 30/34/17 19/19/3 21/21/5
f 30/34/17 21/21/5 27/29/12
f 31/35/18 30/34/17 27/29/12
f 31/35/18 27/29/12 25/25/9
f 32/36/19 31/35/18 25/25/9
f 32/36/19 25/25/9 26/27/20
f 33/37/21 32/36/19 26/27/20
f 33/37/21 26/27/20 34/38/21
f 35/39/22 33/37/21 34/38/21
f 35/39/22 34/38/21 36/40/23
f 24/41/8 35/39/22 36/40/23
f 24/41/8 36/40/23 23/42/7
f 36/40/23 3/43/16 23/42/7
f 36/40/23 1/44/24 3/43/16
f 34/38/25 1/44/24 36/40/23
f 34/38/25 4/45/25 1/44/24
f 26/27/10 4/45/25 34/38/25
f 26/27/10 6/26/10 4/45/25
f 37/46/26 38/47/26 39/48/26
f 37/46/26 40/49/26 38/47/26
f 37/46/26 41/50/26 40/49/26
f 37/46/26 42/51/26 41/50/26
f 37/46/26 43/52/26 42/51/26
f 37/46/26 44/53/26 43/52/26
f 45/54/27 7/55/28 9/56/29
f 46/57/30 7/55/28 45/54/27
f 46/57/30 5/58/31 7/55/28
f 47/59/32 5/58/31 46/57/30
f 47/59/32 2/60/33 5/58/31
f 48/61/34 2/60/33 47/59/32
f 48/61/34 3/62/35 2/60/33
f 42/63/36 10/64/36 28/65/37
f 42/63/36 28/65/37 41/66/37
f 41/66/37 28/65/37 29/67/38
f 41/66/37 29/67/38 40/68/39
f 40/68/39 29/67/38 3/62/35
f 40/68/39 3/62/35 48/61/34
f 48/61/34 38/69/40 40/68/39
f 47/59/32 38/69/40 48/61/34
f 47/59/32 39/70/41 38/69/40
f 46/57/30 39/70/41 47/59/32
f 46/57/30 37/71/42 39/70/41
f 45/54/27 37/71/42 46/57/30
f 45/54/27 44/72/43 37/71/42
f 43/73/44 44/72/43 45/54/27
f 45/54/27 9/56/29 43/73/44
f 43/73/44 9/56/29 10/74/36
f 43/73/44 10/74/36 42/75/36
f 49/76/45 50/77/46 51/78/47
f 50/77/46 52/79/46 51/78/47
f 52/79/46 53/80/46 51/78/47
f 53/80/46 54/81/46 51/78/47
f 54/81/46 55/82/46 51/78/47
f 55/82/46 56/83/48 51/78/47
f 56/83/48 57/84/49 51/78/47
f 57/84/49 49/76/45 51/78/47
f 22/22/50 13/85/51 24/24/51
f 22/22/50 11/86/50 13/85/51
f 19/19/52 11/86/50 22/22/50
f 19/19/52 18/87/52 11/86/50
f 30/34/53 18/87/52 19/19/52
f 30/34/53 17/88/53 18/87/52
f 31/35/54 17/88/53 30/34/53
f 31/35/54 16/89/54 17/88/53
f 32/36/55 16/89/54 31/35/54
f 32/36/55 15/90/55 16/89/54
f 33/37/56 15/90/55 32/36/55
f 33/37/56 14/91/56 15/90/55
f 35/39/57 14/91/56 33/37/56
f 35/39/57 12/92/57 14/91/56
f 24/41/51 12/92/57 35/39/57
f 24/41/51 13/93/51 12/92/57
